<?xml version="1.0" encoding="UTF-8" standalone="no"?> <!-- Created with Vectornator for iOS (http://vectornator.io/) --><!DOCTYPE svg PUBLIC "-//W3C//DTD SVG 1.1//EN" "http://www.w3.org/Graphics/SVG/1.1/DTD/svg11.dtd">
<svg style="fill-rule:evenodd;clip-rule:evenodd;stroke-linecap:round;stroke-linejoin:round;" xmlns:vectornator="http://vectornator.io" xmlns:xlink="http://www.w3.org/1999/xlink" xmlns="http://www.w3.org/2000/svg" xml:space="preserve" version="1.1" viewBox="0 0 564 680">
<metadata>
<vectornator:setting key="DynamicGuides" value="1"/>
<vectornator:setting key="Units" value="Points"/>
<vectornator:setting key="GuidesVisible" value="1"/>
<vectornator:setting key="GridSpacing" value="36"/>
<vectornator:setting key="SnapToGuides" value="1"/>
<vectornator:setting key="RulersVisible" value="1"/>
</metadata>
<defs/>
<g id="Untitled" vectornator:layerName="Untitled">
<path d="M230.83+166.357C210.43+166.357+193.68+149.764+193.68+129.207C193.68+108.65+210.273+92.057+230.83+92.057C251.23+92.057+267.98+108.65+267.98+129.207C267.98+149.764+251.387+166.357+230.83+166.357ZM230.83+107.327C218.79+107.327+208.95+117.165+208.95+129.207C208.95+141.249+218.788+151.087+230.83+151.087C242.872+151.087+252.71+141.249+252.71+129.207C252.71+117.165+242.872+107.327+230.83+107.327Z" opacity="1" fill="#ff0000"/>
<path d="M355.056+168.706L354.028+168.706L297.642+161.364C295.586+161.07+293.824+160.042+292.649+158.427C291.474+156.812+290.887+154.757+291.181+152.847L298.523+96.461C299.11+92.361+302.928+89.413+307.04+89.853L363.426+97.195C365.482+97.489+367.244+98.517+368.419+100.132C369.594+101.747+370.181+103.802+369.887+105.712L362.545+162.098C362.105+165.916+358.875+168.706+355.045+168.706L355.056+168.706ZM307.333+147.121L348.448+152.554L353.881+111.439L312.766+106.006L307.333+147.121Z" opacity="1" fill="#ff5ddc"/>
</g>
<g id="g13" vectornator:layerName="g13">
<path d="M243.838+0.699219C240.313+0.671123+237.178+3.14419+236.408+6.74219L231.953+28.0938L210.566+23.6309C206.455+22.7499+202.49+25.3929+201.609+29.5039C200.728+33.6149+203.382+37.5809+207.482+38.4609L228.861+42.9219L224.369+64.4512C223.488+68.5622+226.142+72.5282+230.242+73.4082C230.829+73.5552+231.27+73.5547+231.857+73.5547C235.381+73.5547+238.612+71.0572+239.199+67.5332L243.689+46.0156L265.191+50.502C265.778+50.649+266.22+50.6484+266.807+50.6484L266.807+50.6465C270.331+50.6465+273.414+48.151+274.148+44.627C275.029+40.516+272.373+36.5499+268.273+35.6699L246.783+31.1875L251.24+9.82617C252.121+5.71517+249.476+1.75014+245.365+0.869141C244.851+0.759016+244.341+0.703232+243.838+0.699219Z" opacity="1" fill="#027fe1"/>
</g>
<g id="Untitled_2" vectornator:layerName="Untitled">
<path d="M306.452+69.443C304.61+69.4387+302.834+68.7595+301.459+67.534C299.403+65.772+298.522+62.982+299.109+60.339L309.535+10.707C310.122+8.064+312.031+5.861+314.528+5.127C317.024+4.247+319.961+4.833+322.028+6.595L360.058+40.075C362.114+41.837+362.995+44.627+362.408+47.27C361.821+49.913+359.912+52.116+357.415+52.997L308.958+69.002C307.93+69.296+307.196+69.442+306.462+69.442L306.452+69.443ZM321.576+26.566L316.583+50.5L339.93+42.72L321.575+26.568L321.576+26.566Z" opacity="1" fill="#8aee49"/>
<path d="M568.925+452.693L521.202+288.086C518.999+280.304+510.482+273.989+502.407+273.989L79.207+273.989C71.131+273.989+62.761+280.303+60.412+288.086L13.275+451.812C11.072+459.594+9.17498+472.516+9.17498+480.592L9.17498+665.316C9.17498+673.392+15.783+680+23.859+680L558.353+680C566.429+680+573.037+673.392+573.037+665.316L573.037+481.474C573.037+473.398+571.137+460.476+568.937+452.694L568.925+452.693ZM519.147+437.275L62.917+436.688C54.841+436.688+49.995+430.374+52.345+422.591L82.595+317.454C84.798+309.672+93.315+303.357+101.39+303.357L480.382+303.357C488.458+303.357+496.975+309.671+499.177+317.454L529.877+423.178C532.08+430.96+527.234+437.275+519.157+437.275L519.147+437.275Z" opacity="1" fill="#808080"/>
</g>
<g id="Calque 1" vectornator:layerName="Calque 1">
<path d="M251.984+184.104C182.537+184.104+126.238+233.878+126.238+295.278C126.238+356.677+182.537+406.452+251.984+406.452L345.877+406.452C362.487+406.452+378.324+403.557+392.839+398.385C408.353+415.371+437.739+416.203+458.688+415.246C454.34+400.581+448.741+383.236+438.332+370.513C447.646+361.573+455.374+351.321+460.994+340.045C467.824+326.343+471.623+311.213+471.623+295.278C471.623+233.878+415.324+184.104+345.877+184.104L251.984+184.104Z" opacity="1" fill="#ffffff"/>
</g>
<g id="Untitled copy" vectornator:layerName="Untitled copy">
<path d="M306.452+69.443C304.61+69.4387+302.834+68.7595+301.459+67.534C299.403+65.772+298.522+62.982+299.109+60.339L309.535+10.707C310.122+8.064+312.031+5.861+314.528+5.127C317.024+4.247+319.961+4.833+322.028+6.595L360.058+40.075C362.114+41.837+362.995+44.627+362.408+47.27C361.821+49.913+359.912+52.116+357.415+52.997L308.958+69.002C307.93+69.296+307.196+69.442+306.462+69.442L306.452+69.443ZM321.576+26.566L316.583+50.5L339.93+42.72L321.575+26.568L321.576+26.566Z" opacity="1" fill="#8aee49"/>
<path d="M306.988+374.093L306.748+373.613L306.268+373.133L307.708+373.373L308.189+373.613L308.189+373.613" opacity="1" fill="#808080"/>
<path d="M311.79+396.42C311.63+396.18+311.47+395.94+311.309+395.7" opacity="1" fill="#808080"/>
<path d="M379.594+206C363.88+206.289+346.963+211.624+328.719+222.031L317.125+228.625C317.125+228.625+278.792+228.204+275.562+225.844C273.359+224.376+267.049+220.852+261.469+218.062C239.313+207.042+218.968+203.756+200.406+208.062C162.992+224.853+137.469+258.321+137.469+296.906C137.469+345.003+177.112+385.157+230.031+394.938L230.156+394.781C233.074+395.565+237.393+396.062+243.969+396.062L303.688+395.688C332.735+395.687+366.382+399.322+382.188+391.375C382.27+391.333+382.297+391.291+382.375+391.25C383.82+390.815+385.303+390.456+386.719+389.969C401.222+405.3+428.696+406.052+448.281+405.188C444.217+391.951+438.982+376.296+429.25+364.812C437.958+356.743+445.183+347.49+450.438+337.312C456.823+324.945+460.375+311.289+460.375+296.906C460.375+258.226+434.692+224.686+397.125+207.938C391.456+206.564+385.612+205.889+379.594+206ZM396.25+247.719C405.795+247.719+413.594+255.517+413.594+265.062C413.594+274.607+405.795+282.375+396.25+282.375C386.705+282.375+378.937+274.607+378.938+265.062C379.084+255.517+386.705+247.719+396.25+247.719ZM219.188+255.938C225.355+255.938+230.469+261.083+230.469+267.25L230.469+287.094L250.312+287.094C256.48+287.094+261.625+292.208+261.625+298.375C261.478+304.689+256.48+309.688+250.312+309.688L230.469+309.688L230.469+329.5C230.469+335.667+225.355+340.812+219.188+340.812C213.02+340.812+207.875+335.667+207.875+329.5L207.875+309.688L188.031+309.688C181.864+309.688+176.75+304.542+176.75+298.375C176.75+292.208+181.864+287.094+188.031+287.094L207.875+287.094L207.875+267.25C207.875+261.083+213.02+255.937+219.188+255.938ZM357.344+263.875C366.889+263.875+374.688+271.674+374.688+281.219C374.688+290.764+366.889+298.531+357.344+298.531C347.799+298.531+340.031+290.764+340.031+281.219C340.031+271.674+347.799+263.875+357.344+263.875ZM412.406+287.812C421.951+287.812+429.75+295.611+429.75+305.156C429.75+314.856+421.951+322.469+412.406+322.469C402.861+322.469+395.094+314.701+395.094+305.156C395.094+295.611+402.861+287.812+412.406+287.812ZM376+305.156C385.545+305.156+393.313+312.924+393.312+322.469C393.312+332.014+385.545+339.813+376+339.812C366.455+339.812+358.656+332.014+358.656+322.469C358.656+312.924+366.455+305.156+376+305.156Z" opacity="1" fill="#808080"/>
<g opacity="1">
<path d="M194.044+465.587L222.242+465.587L222.242+474.962L215.101+474.962L215.101+511.4L222.242+511.4L222.242+520.775L194.41+520.775L194.41+511.4L201.075+511.4L201.075+474.962L199.794+474.962L182.692+520.775L176.796+520.775L159.474+474.962L158.192+474.962L158.192+511.4L165.297+511.4L165.297+520.775L141.969+520.775L141.969+511.4L149.183+511.4L149.183+474.962L141.969+474.962L141.969+465.587L169.728+465.587L181.813+497.887L194.044+465.587Z" opacity="1" fill="#ffffff"/>
<path d="M263.624+497.668L263.624+511.913L269.85+511.913L269.85+520.775L251.393+520.775L251.393+517.773C247.902+520.165+244.41+521.361+240.919+521.361C236.696+521.361+233.314+520.275+230.775+518.102C228.236+515.929+226.967+513+226.967+509.313C226.967+505.407+228.389+502.276+231.233+499.92C234.077+497.564+237.855+496.386+242.567+496.386C244.203+496.386+245.662+496.563+246.943+496.917C248.225+497.271+249.708+497.875+251.393+498.73L251.393+495.653C251.393+493.7+250.782+492.138+249.562+490.966C248.341+489.794+246.51+489.208+244.069+489.208C241.407+489.208+239.051+490.233+237.001+492.284L227.113+490.49C230.116+484.435+236.317+481.408+245.717+481.408C252.162+481.408+256.758+482.732+259.504+485.381C262.251+488.03+263.624+492.126+263.624+497.668ZM243.666+513.708C245.863+513.708+248.439+512.389+251.393+509.753L251.393+506.31C248.756+504.601+246.339+503.747+244.142+503.747C242.384+503.747+241.041+504.162+240.113+504.992C239.186+505.822+238.722+507.006+238.722+508.544C238.722+511.986+240.37+513.708+243.666+513.708Z" opacity="1" fill="#ffffff"/>
<path d="M306.691+481.847L306.691+493.383C303.322+493.603+300.642+494.134+298.652+494.976C296.663+495.818+295.124+497.265+294.038+499.316C292.952+501.366+292.408+504.296+292.408+508.105L292.408+511.913L300.062+511.913L300.062+520.775L273.072+520.775L273.072+511.913L280.14+511.913L280.14+491.296L273.439+491.296L273.439+482.287L291.383+482.287L291.383+492.065C292.286+489.11+293.959+486.657+296.4+484.704C298.842+482.751+301.869+481.774+305.482+481.774C306.019+481.774+306.422+481.798+306.691+481.847Z" opacity="1" fill="#ffffff"/>
<path d="M333.754+511.913L333.754+520.775L309.987+520.775L309.987+511.913L315.992+511.913L315.992+474.413L309.987+474.413L309.987+465.587L328.297+465.587L328.297+511.913L333.754+511.913Z" opacity="1" fill="#ffffff"/>
<path d="M374.55+497.668L374.55+511.913L380.775+511.913L380.775+520.775L362.318+520.775L362.318+517.773C358.827+520.165+355.336+521.361+351.844+521.361C347.621+521.361+344.239+520.275+341.7+518.102C339.161+515.929+337.892+513+337.892+509.313C337.892+505.407+339.314+502.276+342.158+499.92C345.002+497.564+348.78+496.386+353.492+496.386C355.128+496.386+356.587+496.563+357.869+496.917C359.15+497.271+360.634+497.875+362.318+498.73L362.318+495.653C362.318+493.7+361.708+492.138+360.487+490.966C359.266+489.794+357.435+489.208+354.994+489.208C352.333+489.208+349.977+490.233+347.926+492.284L338.038+490.49C341.041+484.435+347.242+481.408+356.642+481.408C363.087+481.408+367.683+482.732+370.43+485.381C373.176+488.03+374.55+492.126+374.55+497.668ZM354.591+513.708C356.788+513.708+359.364+512.389+362.318+509.753L362.318+506.31C359.681+504.601+357.264+503.747+355.067+503.747C353.309+503.747+351.967+504.162+351.039+504.992C350.111+505.822+349.647+507.006+349.647+508.544C349.647+511.986+351.295+513.708+354.591+513.708Z" opacity="1" fill="#ffffff"/>
<path d="M405.97+511.254C408.07+511.254+410.341+510.326+412.782+508.471L412.782+491.296L406.886+491.296L406.886+482.287L425.013+482.287L425.013+511.913L431.312+511.913L431.312+520.775L412.782+520.775L412.782+517.553C408.949+520.092+405.226+521.361+401.613+521.361C397.877+521.361+394.972+520.324+392.897+518.249C390.822+516.173+389.784+513.317+389.784+509.679L389.784+491.296L383.998+491.296L383.998+482.287L401.942+482.287L401.942+506.53C401.942+508.337+402.229+509.576+402.803+510.247C403.376+510.918+404.432+511.254+405.97+511.254Z" opacity="1" fill="#ffffff"/>
<path d="M188.185+560.18L188.185+555.602L197.56+555.602L197.56+572.301L188.185+572.301C187.794+569.616+186.921+567.596+185.566+566.241C184.211+564.886+182.46+564.208+180.311+564.208C178.798+564.208+177.504+564.635+176.429+565.49C175.355+566.344+174.818+567.419+174.818+568.712C174.818+569.86+175.16+570.849+175.843+571.679C176.527+572.509+177.406+573.211+178.48+573.785C179.554+574.358+181.166+575.121+183.314+576.073L185.548+577.025C190.406+579.125+194.075+581.591+196.553+584.423C199.031+587.255+200.27+590.795+200.27+595.043C200.27+600.097+198.817+604.095+195.912+607.036C193.007+609.978+189.1+611.449+184.193+611.449C179.408+611.449+175.685+609.655+173.024+606.066L173.024+610.79L163.649+610.79L163.649+592.04L173.024+592.04C173.219+595.287+174.055+597.759+175.532+599.456C177.009+601.153+179.005+602.001+181.52+602.001C183.204+602.001+184.626+601.427+185.786+600.28C186.946+599.132+187.526+597.741+187.526+596.105C187.526+594.445+186.86+592.925+185.53+591.546C184.199+590.166+181.935+588.781+178.737+587.389C173.292+584.997+169.343+582.421+166.89+579.662C164.436+576.903+163.209+573.73+163.209+570.141C163.209+567.333+163.856+564.77+165.15+562.45C166.444+560.131+168.232+558.306+170.515+556.975C172.798+555.645+175.282+554.98+177.967+554.98C180.116+554.98+182.069+555.419+183.827+556.298C185.585+557.177+187.037+558.471+188.185+560.18Z" opacity="1" fill="#ffffff"/>
<path d="M230.043+572.301L230.043+581.31L222.938+581.31L222.938+598.119C222.938+599.316+223.17+600.213+223.634+600.811C224.098+601.409+224.965+601.708+226.234+601.708C227.284+601.708+228.553+601.44+230.043+600.902L230.043+609.435C226.747+610.729+223.646+611.376+220.741+611.376C217.396+611.376+214.888+610.528+213.215+608.831C211.543+607.134+210.707+604.735+210.707+601.635L210.707+581.31L205.836+581.31L205.836+572.301L210.707+572.301L210.707+566.332L222.938+557.543L222.938+572.301L230.043+572.301Z" opacity="1" fill="#ffffff"/>
<path d="M271.608+587.682L271.608+601.928L277.833+601.928L277.833+610.79L259.376+610.79L259.376+607.787C255.885+610.18+252.394+611.376+248.903+611.376C244.679+611.376+241.298+610.29+238.759+608.117C236.219+605.944+234.95+603.014+234.95+599.328C234.95+595.421+236.372+592.29+239.216+589.934C242.061+587.578+245.839+586.4+250.551+586.4C252.186+586.4+253.645+586.577+254.927+586.931C256.208+587.285+257.692+587.89+259.376+588.744L259.376+585.668C259.376+583.715+258.766+582.152+257.545+580.981C256.324+579.809+254.493+579.223+252.052+579.223C249.391+579.223+247.035+580.248+244.984+582.299L235.096+580.504C238.099+574.45+244.301+571.422+253.7+571.422C260.145+571.422+264.741+572.747+267.488+575.396C270.234+578.045+271.608+582.14+271.608+587.682ZM251.649+603.722C253.846+603.722+256.422+602.404+259.376+599.767L259.376+596.325C256.739+594.616+254.322+593.761+252.125+593.761C250.367+593.761+249.025+594.176+248.097+595.006C247.169+595.837+246.705+597.021+246.705+598.559C246.705+602.001+248.353+603.722+251.649+603.722Z" opacity="1" fill="#ffffff"/>
<path d="M306.105+572.301L306.105+581.31L299+581.31L299+598.119C299+599.316+299.232+600.213+299.696+600.811C300.16+601.409+301.027+601.708+302.296+601.708C303.346+601.708+304.615+601.44+306.105+600.902L306.105+609.435C302.809+610.729+299.708+611.376+296.803+611.376C293.458+611.376+290.95+610.528+289.277+608.831C287.605+607.134+286.769+604.735+286.769+601.635L286.769+581.31L281.898+581.31L281.898+572.301L286.769+572.301L286.769+566.332L299+557.543L299+572.301L306.105+572.301Z" opacity="1" fill="#ffffff"/>
<path d="M330.128+561.352C330.128+563.305+329.463+564.922+328.132+566.204C326.802+567.486+325.221+568.127+323.39+568.127C321.534+568.127+319.941+567.461+318.611+566.131C317.28+564.8+316.615+563.207+316.615+561.352C316.615+559.521+317.28+557.94+318.611+556.609C319.941+555.279+321.534+554.613+323.39+554.613C325.221+554.613+326.802+555.279+328.132+556.609C329.463+557.94+330.128+559.521+330.128+561.352ZM335.072+601.928L335.072+610.79L311.305+610.79L311.305+601.928L317.164+601.928L317.164+581.31L311.305+581.31L311.305+572.301L329.359+572.301L329.359+601.928L335.072+601.928Z" opacity="1" fill="#ffffff"/>
<path d="M380.153+591.527C380.153+595.36+379.249+598.815+377.443+601.891C375.636+604.967+373.195+607.372+370.118+609.106C367.042+610.839+363.661+611.706+359.974+611.706C356.068+611.706+352.577+610.839+349.501+609.106C346.425+607.372+344.026+604.967+342.305+601.891C340.583+598.815+339.723+595.36+339.723+591.527C339.723+587.719+340.608+584.289+342.378+581.237C344.148+578.185+346.583+575.786+349.684+574.041C352.784+572.295+356.215+571.422+359.974+571.422C363.807+571.422+367.262+572.295+370.338+574.041C373.414+575.786+375.819+578.185+377.552+581.237C379.286+584.289+380.153+587.719+380.153+591.527ZM359.901+602.148C362.294+602.148+364.167+601.214+365.522+599.346C366.877+597.478+367.555+594.799+367.555+591.308C367.555+588.036+366.877+585.479+365.522+583.636C364.167+581.792+362.269+580.871+359.828+580.871C357.362+580.871+355.494+581.78+354.225+583.599C352.955+585.418+352.321+588.158+352.321+591.82C352.321+594.921+353.01+597.417+354.39+599.309C355.769+601.202+357.606+602.148+359.901+602.148Z" opacity="1" fill="#ffffff"/>
<path d="M426.808+586.254L426.808+601.928L432.594+601.928L432.594+610.79L414.503+610.79L414.503+587.243C414.503+585.436+414.228+584.124+413.679+583.306C413.13+582.488+412.208+582.079+410.914+582.079C408.571+582.079+406.215+582.921+403.846+584.606L403.846+601.928L409.852+601.928L409.852+610.79L385.792+610.79L385.792+601.928L391.652+601.928L391.652+581.31L385.792+581.31L385.792+572.301L403.846+572.301L403.846+575.927C407.509+573.168+411.268+571.789+415.126+571.789C418.959+571.789+421.864+573.003+423.842+575.432C425.819+577.862+426.808+581.469+426.808+586.254Z" opacity="1" fill="#ffffff"/>
</g>
<g opacity="1">
<path d="M647.767+415.727L647.767+402.91L639.197+402.91L639.197+439.348L647.437+439.348L647.437+448.723L616.492+448.723L616.492+439.348L624.878+439.348L624.878+402.91L616.492+402.91L616.492+415.727L607.117+415.727L607.117+393.535L657.068+393.535L657.068+415.727L647.767+415.727Z" opacity="1" fill="#ffffff"/>
<path d="M648.206+522.075L619.495+522.075C619.788+525.029+620.807+527.367+622.553+529.088C624.299+530.809+626.551+531.67+629.31+531.67C632.361+531.67+635.34+530.156+638.245+527.129L647.767+530.205C645.667+533.354+643.067+535.716+639.966+537.291C636.866+538.866+633.191+539.653+628.943+539.653C624.695+539.653+620.942+538.854+617.682+537.255C614.423+535.655+611.896+533.391+610.102+530.461C608.307+527.532+607.41+524.089+607.41+520.134C607.41+516.228+608.344+512.688+610.212+509.514C612.079+506.34+614.606+503.856+617.792+502.062C620.978+500.267+624.439+499.37+628.174+499.37C632.227+499.37+635.755+500.304+638.758+502.172C641.761+504.039+644.074+506.688+645.698+510.118C647.321+513.548+648.157+517.534+648.206+522.075ZM627.588+507.537C625.391+507.537+623.627+508.171+622.297+509.441C620.966+510.71+620.13+512.651+619.788+515.264L635.828+515.264C635.486+512.969+634.552+511.107+633.027+509.679C631.501+508.251+629.688+507.537+627.588+507.537Z" opacity="1" fill="#ffffff"/>
<path d="M634.986+590.264L646.631+590.264L646.631+599.272L641.468+599.272L633.741+608.428L642.713+619.89L647.986+619.89L647.986+628.752L633.191+628.752L625.794+617.949L617.737+628.752L605.762+628.752L605.762+619.89L611.365+619.89L619.715+610.002L611.365+599.272L605.762+599.272L605.762+590.264L620.594+590.264L627.515+600.847L634.986+590.264Z" opacity="1" fill="#ffffff"/>
<path d="M631.25+680.278L631.25+689.287L624.146+689.287L624.146+706.096C624.146+707.292+624.378+708.19+624.842+708.788C625.306+709.386+626.172+709.685+627.442+709.685C628.492+709.685+629.761+709.416+631.25+708.879L631.25+717.412C627.955+718.706+624.854+719.353+621.949+719.353C618.604+719.353+616.095+718.505+614.423+716.808C612.751+715.111+611.915+712.712+611.915+709.612L611.915+689.287L607.044+689.287L607.044+680.278L611.915+680.278L611.915+674.309L624.146+665.52L624.146+680.278L631.25+680.278Z" opacity="1" fill="#ffffff"/>
<path d="M648.206+792.119L619.495+792.119C619.788+795.073+620.807+797.411+622.553+799.132C624.299+800.853+626.551+801.714+629.31+801.714C632.361+801.714+635.34+800.2+638.245+797.173L647.767+800.249C645.667+803.398+643.067+805.76+639.966+807.335C636.866+808.91+633.191+809.697+628.943+809.697C624.695+809.697+620.942+808.898+617.682+807.298C614.423+805.699+611.896+803.435+610.102+800.505C608.307+797.576+607.41+794.133+607.41+790.178C607.41+786.272+608.344+782.732+610.212+779.558C612.079+776.384+614.606+773.9+617.792+772.106C620.978+770.311+624.439+769.414+628.174+769.414C632.227+769.414+635.755+770.348+638.758+772.215C641.761+774.083+644.074+776.732+645.698+780.162C647.321+783.592+648.157+787.578+648.206+792.119ZM627.588+777.58C625.391+777.58+623.627+778.215+622.297+779.485C620.966+780.754+620.13+782.695+619.788+785.308L635.828+785.308C635.486+783.013+634.552+781.151+633.027+779.723C631.501+778.295+629.688+777.58+627.588+777.58Z" opacity="1" fill="#ffffff"/>
</g>
<g opacity="1"/>
<g opacity="1">
<path d="M491.323+628.246C491.323+628.274+491.319+628.292+491.31+628.301L491.241+628.725L491.241+628.93L491.029+629.258L490.776+629.771L490.694+629.914C490.594+629.846+490.528+629.812+490.496+629.812L490.346+629.873L490.359+630.078L490.216+630.092L490.373+630.181L490.4+630.263L489.908+630.666L489.505+630.946C489.286+631.106+489.095+631.209+488.931+631.254C488.703+631.414+488.49+631.533+488.292+631.613C488.093+631.693+487.88+631.746+487.652+631.774C487.424+631.801+487.117+631.815+486.729+631.815C486.274+631.815+485.931+631.793+485.701+631.75C485.471+631.706+485.194+631.612+484.87+631.466L484.774+631.61L484.48+631.493L484.31+631.575C484.182+631.484+484.048+631.43+483.906+631.411L483.858+631.329L483.804+631.329L483.722+631.329L483.271+631.37C483.229+631.357+483.175+631.3+483.106+631.199L482.84+631.158L482.881+631.281L482.758+631.37C482.63+631.452+482.55+631.493+482.519+631.493C482.478+631.493+482.43+631.48+482.375+631.452L482.334+631.213L482.32+631.117L482.505+630.987L483.052+630.755L483.257+630.461L483.373+630.29L483.414+628.991L483.441+628.848L483.359+628.65L483.51+628.205L483.387+628.246L483.373+627.939C483.373+627.811+483.391+627.652+483.428+627.46L483.551+627.405L483.578+627.351L483.469+627.002L483.551+626.763L483.414+626.428L483.482+625.867L483.455+625.71L483.359+625.71L483.284+625.478L483.318+625.293L483.257+625.225L483.271+625.122L483.243+624.733L483.271+624.384L483.216+624.186L483.257+624.063L483.284+623.974L483.257+623.878C483.22+623.814+483.196+623.756+483.185+623.704C483.174+623.651+483.161+623.523+483.147+623.318L483.134+623.119C483.207+623.083+483.243+623.033+483.243+622.969L483.229+622.873C483.102+622.86+482.977+622.807+482.854+622.716L482.614+622.743L482.587+622.675L482.532+622.675L482.532+622.579L482.669+622.449L483.052+622.313L483.188+622.183C483.284+622.101+483.396+622.06+483.523+622.06L483.776+622.087L484.07+622.06L484.241+622.114L485.342+622.073L485.444+622.169L485.581+622.21L485.636+622.155L485.889+622.101L486.449+622.155L487.023+622.196C487.274+622.21+487.488+622.276+487.666+622.395L487.796+622.299L488.049+622.354L488.213+622.395L488.425+622.395L488.609+622.436C488.851+622.586+488.972+622.702+488.972+622.784C488.972+622.921+488.924+623.062+488.828+623.208L488.76+623.372L488.65+623.359C488.546+623.359+488.493+623.406+488.493+623.502L488.479+623.741L488.186+623.864L487.946+624.09L487.29+624.439L487.078+624.623L487.078+624.692L487.276+624.787L487.475+624.945L487.652+625.013L487.714+624.958L488.158+625.095C488.158+625.309+488.201+625.416+488.288+625.416C488.361+625.416+488.434+625.38+488.507+625.307L488.678+625.293C488.778+625.293+488.851+625.308+488.896+625.338C488.942+625.367+488.981+625.418+489.013+625.491L489.122+625.491L489.225+625.587L489.334+625.546L490.106+625.963L490.106+626.107L490.243+626.175C490.457+626.271+490.564+626.369+490.564+626.469C490.564+626.533+490.546+626.603+490.51+626.681C490.619+626.799+490.699+626.859+490.749+626.859L490.858+626.818C491.045+627.059+491.139+627.246+491.139+627.378C491.139+627.41+491.102+627.458+491.029+627.522L491.07+627.563L491.057+627.699C491.234+627.936+491.323+628.119+491.323+628.246ZM487.447+623.092C487.01+622.85+486.686+622.73+486.477+622.73L486.285+622.757L486.128+622.661L485.964+622.689L485.273+622.62L484.966+622.661C484.674+622.675+484.412+622.725+484.18+622.812L484.166+622.942L484.214+623.447L484.002+623.782L483.988+623.837L484.002+623.892L484.002+623.987L484.269+624.063L484.296+624.213C484.314+624.423+484.323+624.55+484.323+624.596C484.323+624.687+484.296+624.785+484.241+624.89C484.401+624.849+484.499+624.815+484.535+624.787L484.617+624.746L485.15+624.733C485.169+624.728+485.185+624.725+485.198+624.722C485.212+624.72+485.231+624.716+485.256+624.709C485.281+624.702+485.308+624.694+485.335+624.685C485.362+624.676+485.385+624.669+485.403+624.664L485.581+624.61C485.663+624.673+485.729+624.705+485.779+624.705C485.825+624.705+485.861+624.692+485.889+624.664L486.128+624.439L486.798+624.24C486.898+624.199+487.006+624.123+487.123+624.011C487.239+623.9+487.317+623.794+487.358+623.694C487.418+623.575+487.447+623.375+487.447+623.092ZM490.038+628.711L490.024+628.636L489.922+628.034C489.872+627.734+489.836+627.541+489.816+627.457C489.795+627.372+489.746+627.292+489.669+627.214C489.55+627.073+489.491+626.993+489.491+626.975L489.416+626.777L489.334+626.667L489.081+626.592L488.944+626.578C488.753+626.391+488.632+626.289+488.582+626.271L487.57+625.936L487.386+625.813L487.064+625.772L486.832+625.505C486.764+625.437+486.684+625.403+486.593+625.403C486.529+625.403+486.486+625.441+486.463+625.519L486.312+625.464L486.299+625.56L486.169+625.573L486.032+625.505L485.697+625.43L485.39+625.43L485.082+625.362L484.631+625.321C484.549+625.321+484.428+625.362+484.269+625.444L484.351+626.018L484.166+626.23L484.18+626.442C484.207+626.688+484.225+626.828+484.234+626.862C484.243+626.896+484.278+626.961+484.337+627.057L484.31+627.433L484.323+627.87L484.351+628.034C484.351+628.189+484.319+628.317+484.255+628.417C484.255+628.549+484.287+628.666+484.351+628.766L484.125+628.978L484.139+629.258L484.337+629.34L484.364+629.477L484.405+629.955L484.535+630.372C484.499+630.532+484.321+630.625+484.002+630.653L483.961+630.755C484.075+630.778+484.157+630.803+484.207+630.83C484.257+630.858+484.314+630.905+484.378+630.974L484.562+631.008L485.068+631.104L485.595+631.145L486.299+631.302L486.955+631.268L487.837+631.281C487.914+631.281+487.99+631.263+488.062+631.227L488.288+631.145L488.507+631.049L488.76+630.823L489.136+630.584C489.241+630.52+489.345+630.377+489.45+630.154L489.655+629.702L489.785+629.504L489.84+629.224L490.038+628.711Z" opacity="1" fill="#000000"/>
<path d="M498.631+629.996L498.398+630.639L498.398+630.666L498.426+630.769L498.562+630.933L498.508+631.302L498.535+631.828L498.467+631.999L498.48+632.724L498.378+632.963L498.31+633.298L498.2+633.524L498.214+633.872L497.975+634.46L497.92+634.617L497.722+634.74L497.202+635.404L496.895+635.862C496.781+636.039+496.664+636.155+496.546+636.21L496.368+636.313L496.197+636.49L495.985+636.62L495.862+636.73L495.568+636.812C495.564+636.812+495.418+636.878+495.131+637.01L494.7+637.167L494.085+637.345L493.442+637.277L493.101+637.236C492.937+637.222+492.798+637.183+492.684+637.119L492.219+636.825L491.986+636.771L491.802+636.518L491.439+636.299C491.353+636.226+491.31+636.098+491.31+635.916C491.31+635.725+491.376+635.543+491.508+635.369C491.549+635.319+491.638+635.287+491.774+635.274L491.856+635.472L491.925+635.663L492.191+636.032L492.458+636.449C492.554+636.545+492.624+636.593+492.67+636.593L492.684+636.593L492.779+636.579L493.354+636.812L493.832+636.846C493.891+636.891+493.951+636.914+494.01+636.914C494.055+636.914+494.117+636.885+494.194+636.825L494.352+636.846C494.543+636.846+494.816+636.766+495.172+636.607C495.486+636.452+495.678+636.335+495.746+636.258L496.266+635.725L496.587+635.527C496.705+635.435+496.803+635.267+496.881+635.021L497.052+634.46L497.305+634.071L497.264+633.777L497.387+633.23L497.4+632.669C497.4+632.478+497.444+632.286+497.53+632.095L497.64+631.719L497.558+631.398L497.482+630.447L497.469+630.29L497.469+630.222L497.585+629.86L497.51+629.757L497.305+629.86L497.065+629.996L496.867+630.208L496.211+630.625L495.876+630.946L495.356+631.329C495.211+631.43+495.099+631.493+495.021+631.521L494.57+631.596L494.324+631.692C494.224+631.719+494.149+631.733+494.099+631.733C493.921+631.733+493.684+631.676+493.388+631.562C493.091+631.448+492.889+631.332+492.779+631.213C492.602+631.035+492.513+630.807+492.513+630.529L492.526+630.386C492.622+630.322+492.67+630.263+492.67+630.208C492.67+630.199+492.669+630.191+492.667+630.184C492.664+630.177+492.661+630.172+492.656+630.167L492.513+629.969L492.499+629.771L492.54+629.593L492.807+628.978L492.752+628.738L492.752+628.65C492.752+628.599+492.77+628.488+492.807+628.315L492.937+627.816C492.964+627.697+492.987+627.583+493.005+627.474L493.019+626.947L493.148+626.414C493.148+626.35+493.114+626.271+493.046+626.175L492.854+626.148L492.834+626.031L493.087+625.737L493.244+625.683L493.483+625.614L494.167+625.225L494.208+625.225C494.276+625.225+494.331+625.252+494.372+625.307C494.413+625.362+494.434+625.432+494.434+625.519L494.434+625.56L494.222+626.079L494.126+626.592L493.955+627.378L493.914+627.843C493.891+627.911+493.855+627.952+493.805+627.966L493.593+628.021C493.52+628.048+493.483+628.1+493.483+628.178C493.483+628.287+493.577+628.342+493.764+628.342L493.565+629.757L493.511+630.167L493.552+630.277L493.647+630.4L493.846+630.728L494.235+630.878L494.42+631.09L494.516+631.131L494.57+631.131L494.796+630.974L495.452+630.755L495.732+630.557L496.211+630.222L496.662+629.784L496.956+629.607L497.079+629.531L497.332+628.875L497.373+628.848L497.4+628.725L497.544+628.554L497.482+628.178L497.544+628.075L497.51+627.781L497.558+627.631L497.441+627.029L497.387+626.202L497.188+625.799C497.179+625.781+497.175+625.751+497.175+625.71L497.175+625.601L497.469+625.505L497.681+625.307L498.084+625.252L498.241+625.211C498.373+625.302+498.439+625.38+498.439+625.444L498.439+625.478L498.398+625.724L498.426+626.216L498.364+626.414L498.364+626.592L498.282+626.9L498.296+627.002C498.364+627.166+498.417+627.289+498.453+627.371C498.49+627.453+498.508+627.517+498.508+627.563L498.508+627.74L498.535+628.178L498.439+628.417C498.421+628.472+498.412+628.513+498.412+628.54C498.412+628.668+498.485+628.798+498.631+628.93L498.617+629.101L498.631+629.996Z" opacity="1" fill="#000000"/>
<path d="M513.725+630.796C513.725+630.946+513.649+631.108+513.499+631.281C513.376+631.414+513.278+631.48+513.205+631.48C513.196+631.48+513.164+631.471+513.109+631.452L512.986+631.534C512.886+631.612+512.806+631.651+512.747+631.651L512.638+631.637L512.651+631.466L512.706+631.076L512.692+630.796L512.815+629.969L512.747+629.607L512.706+628.807L512.665+628.527L512.679+627.843L512.651+627.392L512.679+627.125L512.576+626.243L512.665+626.066L512.549+626.018L512.549+625.854L512.453+625.444L512.467+625.054L512.398+624.89L512.228+624.931L512.173+625.013L512.2+625.211L511.838+625.758L511.824+625.908L511.708+626.018L511.64+626.202L511.544+626.346L511.503+626.592L511.318+627.002L511.291+627.153C511.141+627.276+511.038+627.387+510.983+627.487L510.758+627.993L510.143+629.046L509.705+629.86L509.596+630.024L509.192+630.4C509.142+630.441+509.117+630.479+509.117+630.516C509.117+630.516+509.119+630.518+509.124+630.523C509.129+630.527+509.133+630.534+509.138+630.543C509.165+630.653+509.179+630.723+509.179+630.755L509.165+630.823C509.078+630.837+509.016+630.863+508.977+630.902C508.938+630.941+508.903+631.003+508.871+631.09C508.812+631.25+508.763+631.36+508.724+631.422C508.685+631.483+508.635+631.53+508.574+631.562C508.512+631.594+508.42+631.623+508.297+631.651C508.178+631.518+508.11+631.432+508.092+631.391C508.074+631.35+508.058+631.281+508.044+631.186L507.989+631.131C507.989+631.035+507.932+630.96+507.818+630.905L507.764+630.96L507.661+630.782L507.497+630.331L507.354+630.14L507.203+629.716L507.032+629.463C507.091+629.354+507.121+629.251+507.121+629.155C507.121+629.083+507.105+629.032+507.073+629.005L506.854+628.821L506+627.125L505.788+626.681L505.802+626.681L505.843+626.496L505.733+626.271L505.692+626.066L505.549+626.134L505.467+625.99C505.326+625.749+505.237+625.583+505.2+625.491C505.164+625.4+505.118+625.264+505.063+625.081C504.945+625.081+504.87+625.045+504.838+624.972L504.735+625.197L504.626+625.197L504.599+625.252C504.662+625.348+504.694+625.441+504.694+625.532L504.653+626.052C504.649+626.134+504.643+626.199+504.636+626.247C504.629+626.295+504.618+626.331+504.602+626.356C504.586+626.381+504.553+626.428+504.503+626.496L504.667+626.831L504.64+627.002L504.626+627.487L504.585+627.781L504.626+629.258L504.544+629.477C504.608+629.609+504.64+629.741+504.64+629.873L504.64+629.928L504.64+630.01C504.521+630.024+504.444+630.053+504.407+630.099C504.371+630.144+504.346+630.236+504.332+630.372L504.585+630.461L504.599+630.612L504.599+630.769C504.599+630.905+504.58+630.99+504.544+631.022L504.024+631.37L503.771+631.575L503.676+631.596L503.532+631.575L503.519+631.493L503.491+631.37L503.621+631.049L503.621+630.386L503.73+629.566L503.717+629.128L503.703+628.978L503.73+628.766L503.717+628.595C503.785+628.545+503.826+628.47+503.84+628.369L503.915+628.328C503.901+628.242+503.885+628.187+503.867+628.164L503.785+627.993C503.785+627.971+503.784+627.952+503.782+627.939C503.779+627.925+503.776+627.911+503.771+627.898C503.771+627.829+503.81+627.754+503.888+627.672C503.81+627.54+503.771+627.424+503.771+627.323L503.771+627.282L503.812+626.442L503.771+625.71L503.785+625.56L504.011+625.628C504.056+625.569+504.079+625.519+504.079+625.478L504.079+625.43L503.771+625.403L503.744+625.068L503.97+625.054L503.997+624.917C503.997+624.835+503.931+624.769+503.799+624.719L503.73+624.343L503.799+624.343L503.812+624.254L503.703+623.584L503.717+623.263L503.594+622.996C503.594+622.905+503.676+622.821+503.84+622.743L503.97+622.771L504.052+622.593L504.195+622.531L504.503+622.299C504.571+622.249+504.631+622.224+504.681+622.224L504.824+622.258C504.829+622.345+504.844+622.407+504.869+622.446C504.894+622.485+504.947+622.525+505.029+622.566C505.038+622.625+505.052+622.678+505.07+622.726C505.089+622.774+505.119+622.832+505.163+622.901C505.206+622.969+505.266+623.067+505.344+623.195L505.282+623.345L505.214+623.571L505.241+623.653L505.453+623.755L505.617+624.268L505.48+624.48L505.562+624.521L505.617+624.664C505.754+624.673+505.868+624.758+505.959+624.917L506.178+625.403L506.431+626.12C506.312+626.225+506.253+626.309+506.253+626.373L506.321+626.537L506.472+626.551C506.549+626.56+506.599+626.576+506.622+626.599C506.645+626.622+506.67+626.672+506.697+626.749L506.574+626.947C506.624+627.011+506.67+627.043+506.711+627.043L506.793+627.043L506.882+627.166C507.06+627.499+507.148+627.699+507.148+627.768L507.094+627.98L507.046+628.137L507.176+628.205L507.312+628.233L507.47+628.445L507.736+628.725L507.805+628.991L507.955+629.128L508.14+629.579L508.297+629.743L508.516+630.181L508.632+630.277L508.796+630.119L509.288+629.566L509.541+629.128L509.767+628.711L510.102+628.137L510.73+626.667L510.983+626.284L511.052+625.854L511.4+625.068L511.455+624.856L511.544+624.828L511.626+624.76L511.626+624.705L511.735+624.651L511.722+624.534L511.599+624.48C511.635+624.288+511.681+624.177+511.735+624.145L511.865+624.09L511.988+623.987C511.934+623.892+511.865+623.789+511.783+623.68C511.856+623.58+511.893+623.498+511.893+623.434C511.893+623.402+511.888+623.377+511.879+623.359L512.002+623.222L512.214+622.901L512.617+622.566C512.79+622.415+512.895+622.34+512.932+622.34L513.096+622.381L513.055+622.846L513.109+622.901L513.239+622.887C513.367+622.887+513.431+622.923+513.431+622.996L513.417+623.263L513.362+623.488L513.28+623.461L513.253+623.584L513.349+623.837L513.376+625.293L513.376+625.362C513.376+625.434+513.358+625.496+513.321+625.546L513.137+625.799C513.118+625.817+513.109+625.872+513.109+625.963C513.146+626.018+513.182+626.053+513.219+626.069C513.255+626.085+513.312+626.093+513.39+626.093L513.403+626.346L513.376+627.474L513.485+627.966L513.547+628.821L513.602+629.395C513.602+629.472+513.583+629.566+513.547+629.675C513.606+629.748+513.643+629.809+513.656+629.86C513.67+629.91+513.684+630.04+513.697+630.249L513.725+630.782L513.725+630.796Z" opacity="1" fill="#000000"/>
<path d="M521.504+630.974L521.436+631.104L521.326+631.268L521.128+631.343L520.848+631.493L520.581+631.575C520.412+631.644+520.314+631.678+520.287+631.678C520.255+631.678+520.224+631.661+520.195+631.627C520.165+631.592+520.15+631.562+520.15+631.534C520.15+631.489+520.173+631.386+520.219+631.227C520.242+631.181+520.26+631.101+520.273+630.987L520.137+631.076L519.521+631.281C519.398+631.341+519.275+631.37+519.152+631.37L519.139+631.37L518.872+631.37L518.551+631.521L518.332+631.548L517.696+631.678L517.437+631.637L517.252+631.705L517.122+631.733L516.917+631.719L516.466+631.623L516.158+631.596C515.949+631.569+515.767+631.497+515.615+631.381C515.462+631.264+515.349+631.115+515.276+630.933L515.092+630.864L515.051+630.694L515.037+630.571L514.941+630.249L515.194+629.743L515.276+629.518C515.304+629.459+515.388+629.372+515.529+629.258L516.062+628.821L516.288+628.738L516.664+628.581C516.669+628.581+516.678+628.582+516.691+628.585C516.705+628.587+516.719+628.59+516.732+628.595C516.824+628.399+516.997+628.301+517.252+628.301L517.293+628.26L517.437+628.26C517.496+628.187+517.555+628.137+517.614+628.11C517.674+628.082+517.785+628.053+517.949+628.021L518.804+627.87L519.057+627.898L519.378+627.829L519.952+627.768C520.148+627.722+520.246+627.629+520.246+627.487C520.246+627.469+520.242+627.456+520.232+627.446L520.164+627.139L520.219+626.695C520.205+626.599+520.171+626.529+520.116+626.486C520.062+626.443+519.979+626.414+519.87+626.401L519.774+626.243C519.674+626.079+519.592+625.973+519.528+625.925C519.465+625.878+519.344+625.835+519.166+625.799L518.776+625.71L518.4+625.696L518.216+625.724C518.175+625.706+518.143+625.683+518.12+625.655C518.097+625.628+518.079+625.587+518.065+625.532L517.881+625.614L517.669+625.813L516.999+626.148C516.858+626.225+516.764+626.3+516.719+626.373L516.623+626.51C516.577+626.583+516.516+626.619+516.438+626.619L516.302+626.592L516.104+626.496L515.892+626.455C515.823+626.432+515.755+626.394+515.687+626.339C515.618+626.284+515.584+626.234+515.584+626.189C515.584+626.161+515.589+626.148+515.598+626.148L515.714+626.066L515.933+625.895L516.172+625.854L516.534+625.669L516.985+625.519L517.108+625.491L517.402+625.334L517.642+625.375L518.469+625.197L518.817+625.211L519.084+625.211L519.364+625.307L520.178+625.464L520.301+625.532L520.301+625.628L520.205+625.683C520.232+625.842+520.289+625.922+520.376+625.922C520.385+625.918+520.392+625.914+520.396+625.912C520.401+625.91+520.408+625.908+520.417+625.908L520.608+625.826L520.636+625.826C520.681+625.826+520.711+625.849+520.725+625.895L520.861+626.148L521.005+626.257L521.005+626.414L520.978+626.763C520.978+626.913+521.05+627.043+521.196+627.153L521.285+628.164L521.101+628.417L521.312+628.663L521.326+628.752L521.285+629.395L521.34+629.887L521.34+629.996L521.34+630.154L521.244+630.181C521.253+630.295+521.26+630.368+521.265+630.4C521.269+630.432+521.285+630.478+521.312+630.54C521.34+630.601+521.372+630.673+521.408+630.755L521.504+630.974ZM520.417+629.784C520.349+629.725+520.305+629.675+520.287+629.634L520.314+629.354L520.26+628.725L520.342+628.54L520.123+628.417L520.007+628.445L519.378+628.404L519.084+628.417L518.858+628.26L518.722+628.342L518.346+628.356L518.079+628.458L517.922+628.369L517.73+628.486L516.705+628.978L516.479+629.142L516.302+629.408L516.062+629.552C516.026+629.588+516.008+629.629+516.008+629.675C516.008+629.675+516.009+629.677+516.011+629.682C516.014+629.686+516.017+629.693+516.021+629.702L516.076+629.784L516.062+629.846L516.213+630.461L516.062+630.851L516.172+630.987L516.356+630.769C516.42+630.823+516.479+630.869+516.534+630.905C516.589+630.942+516.655+630.973+516.732+630.998C516.81+631.023+516.908+631.049+517.026+631.076L517.17+631.268L517.642+631.316L517.771+631.186L517.908+631.254L518.004+631.199L518.079+631.158C518.188+631.195+518.252+631.213+518.271+631.213C518.407+631.213+518.585+631.149+518.804+631.022C518.817+631.013+518.836+631.002+518.858+630.991C518.881+630.98+518.915+630.96+518.961+630.933C519.371+630.933+519.642+630.848+519.774+630.68L519.911+630.502L520.246+630.222L520.26+630.14L520.246+630.051C520.314+630.028+520.358+630.001+520.376+629.969C520.394+629.937+520.408+629.876+520.417+629.784Z" opacity="1" fill="#000000"/>
<path d="M527.848+625.71C527.848+625.733+527.839+625.753+527.82+625.772L527.431+626.079L527.219+626.298L527.096+626.346L526.911+626.23L526.788+626.107L526.378+626.093L525.988+625.936L525.838+625.895C525.779+625.995+525.717+626.058+525.653+626.083C525.59+626.108+525.46+626.12+525.264+626.12L525.038+626.216L524.867+626.161L524.73+626.271L524.184+626.695C524.092+626.813+524.04+627.032+524.026+627.351L524.013+627.87L523.862+627.966C523.953+628.121+523.999+628.271+523.999+628.417L524.102+628.417L524.115+628.609L524.143+629.49L524.156+629.955L524.129+630.372C523.988+630.454+523.917+630.52+523.917+630.571C523.917+630.58+523.935+630.621+523.972+630.694L524.156+630.653L524.143+630.714L524.197+630.987L524.197+631.022C524.197+631.09+524.161+631.161+524.088+631.234C524.015+631.307+523.94+631.348+523.862+631.357L523.596+631.384L523.192+631.596L523.021+631.493L523.049+631.357L523.145+630.96L523.104+630.434L523.145+630.359L523.288+630.359L523.288+630.277L523.274+630.154L523.192+629.955L523.172+629.675L523.117+629.436L523.117+629.422L523.117+629.237L523.131+629.019C523.149+628.996+523.168+628.972+523.189+628.947C523.209+628.922+523.237+628.884+523.271+628.834C523.305+628.784+523.343+628.723+523.384+628.65L523.452+628.486L523.438+628.417C523.224+628.417+523.117+628.369+523.117+628.274L523.145+627.754L523.104+627.241C523.117+627.196+523.147+627.153+523.192+627.112L523.192+626.913L523.104+626.831L523.076+626.667L523.062+626.298L522.912+626.004C522.944+625.84+523.017+625.701+523.131+625.587L523.555+625.362L523.808+625.197C523.935+625.234+524.023+625.277+524.071+625.327C524.119+625.377+524.143+625.46+524.143+625.573L524.143+625.614L524.143+625.799C524.143+625.968+524.179+626.052+524.252+626.052L524.279+626.052L524.628+625.867L524.97+625.737L525.558+625.416L525.749+625.334L525.906+625.375L526.214+625.279C526.392+625.225+526.526+625.197+526.617+625.197L526.911+625.225C527.002+625.352+527.077+625.416+527.137+625.416C527.146+625.412+527.153+625.408+527.157+625.406C527.162+625.404+527.169+625.403+527.178+625.403L527.335+625.321C527.371+625.302+527.399+625.293+527.417+625.293C527.531+625.293+527.638+625.355+527.738+625.478C527.811+625.564+527.848+625.642+527.848+625.71Z" opacity="1" fill="#000000"/>
<path d="M530.124+621.807C530.124+621.907+530.099+621.973+530.049+622.005L529.55+622.367L529.352+622.566L528.989+622.812C528.748+622.989+528.602+623.078+528.552+623.078C528.529+623.078+528.505+623.064+528.48+623.034C528.455+623.004+528.442+622.973+528.442+622.942C528.442+622.837+528.47+622.757+528.524+622.702L529.229+622.032L529.604+621.527C529.659+621.499+529.721+621.486+529.789+621.486C529.88+621.486+529.959+621.516+530.025+621.578C530.091+621.639+530.124+621.716+530.124+621.807ZM529.714+625.43C529.627+625.621+529.577+625.799+529.563+625.963L529.522+626.64L529.393+626.872C529.393+626.881+529.391+626.89+529.389+626.9C529.387+626.909+529.383+626.92+529.379+626.934C529.379+626.993+529.436+627.057+529.55+627.125L529.522+627.337L529.522+628.663L529.495+629.73L529.591+630.181L529.591+630.413L529.618+630.878C529.595+630.946+529.452+631.081+529.188+631.281L528.846+631.548C528.791+631.607+528.723+631.637+528.641+631.637C528.581+631.637+528.529+631.619+528.483+631.582C528.438+631.546+528.415+631.507+528.415+631.466C528.415+631.348+528.451+631.209+528.524+631.049L528.579+630.851L528.511+630.782L528.613+629.634L528.654+629.518L528.832+629.49L528.832+629.272C528.832+629.13+528.821+629.026+528.798+628.957C528.775+628.889+528.718+628.798+528.627+628.684L528.641+628.458L528.641+628.417L528.627+628.301C528.627+628.151+528.654+628.016+528.709+627.898L528.613+627.781L528.627+627.405C528.691+627.369+528.723+627.328+528.723+627.282L528.709+627.166L528.511+627.139L528.511+626.934L528.524+626.749L528.524+626.469C528.524+626.346+528.512+626.255+528.487+626.196C528.462+626.136+528.406+626.072+528.319+626.004C528.379+625.845+528.513+625.706+528.723+625.587L529.379+625.211C529.502+625.225+529.614+625.298+529.714+625.43Z" opacity="1" fill="#000000"/>
<path d="M537.445+630.974L537.377+631.172L536.434+631.623C536.306+631.459+536.242+631.357+536.242+631.316L536.242+631.281L536.406+630.625L536.42+630.331L536.475+630.345L536.591+630.208C536.559+630.135+536.528+630.087+536.499+630.065C536.469+630.042+536.415+630.015+536.338+629.983L536.311+629.873L536.42+628.595L536.352+628.417L536.365+628.192L536.365+627.672L536.447+627.419L536.324+627.296L536.338+626.886C536.288+626.736+536.203+626.592+536.085+626.455L536.085+626.387C536.085+626.328+536.067+626.284+536.03+626.257L535.859+626.243L535.511+626.031L534.95+626.066L534.308+626.018C534.253+626.045+534.191+626.102+534.123+626.189L534+626.161L533.467+626.257L533.275+626.298L533.036+626.483L532.729+626.619C532.578+626.692+532.494+626.802+532.476+626.947L532.462+627.617L532.373+628.034L532.517+628.445L532.517+628.663L532.503+629.477L532.373+629.757L532.359+629.86L532.359+629.901L532.489+630.119L532.53+630.864L532.585+631.104C532.585+631.131+532.571+631.166+532.544+631.21C532.517+631.253+532.48+631.284+532.435+631.302L531.983+631.411L531.86+631.439C531.787+631.562+531.717+631.623+531.648+631.623C531.603+631.623+531.555+631.598+531.505+631.548C531.5+631.539+531.495+631.53+531.488+631.521C531.481+631.512+531.473+631.502+531.464+631.493C531.446+631.457+531.437+631.443+531.437+631.452L531.539+630.946L531.525+630.372L531.594+630.14L531.539+629.757L531.566+629.34L531.58+628.458C531.58+628.34+531.66+628.274+531.819+628.26C531.806+628.16+531.782+628.097+531.748+628.072C531.713+628.047+531.639+628.034+531.525+628.034L531.539+626.804L531.689+626.708L531.607+626.565L531.423+626.066L531.3+625.908L531.382+625.758L531.525+625.587L531.771+625.478L532.011+625.293C532.079+625.238+532.163+625.211+532.264+625.211C532.323+625.211+532.38+625.228+532.435+625.262C532.489+625.297+532.521+625.334+532.53+625.375L532.544+626.018L532.571+626.23L532.701+626.189C532.865+625.988+533.058+625.8+533.279+625.625C533.5+625.449+533.665+625.362+533.774+625.362C533.834+625.362+533.882+625.409+533.918+625.505C534.009+625.478+534.116+625.425+534.239+625.348C534.371+625.275+534.483+625.238+534.574+625.238L534.615+625.238L535.176+625.293L535.388+625.225L536.017+625.307C536.231+625.334+536.399+625.409+536.522+625.532L536.618+625.519C536.764+625.519+536.885+625.583+536.98+625.71L537.083+625.881L537.22+626.107C537.284+626.184+537.315+626.35+537.315+626.606L537.315+626.988L537.343+627.153L537.179+627.364L537.233+627.535L537.315+627.686L537.315+627.843L537.315+627.966C537.315+628.002+537.311+628.03+537.302+628.048L537.206+628.246C537.188+628.283+537.179+628.349+537.179+628.445L537.315+628.622L537.302+628.821L537.288+629.299L537.288+629.354L537.391+629.62L537.404+630.236L537.445+630.974Z" opacity="1" fill="#000000"/>
<path d="M545.341+630.037C545.341+630.097+545.329+630.149+545.307+630.195L545.17+630.434L544.849+630.987L544.555+631.008L544.37+631.158C544.329+631.199+544.258+631.227+544.158+631.24L542.928+631.48L542.736+631.548L542.299+631.507L541.67+631.562L540.959+631.521L540.761+631.521C540.66+631.443+540.599+631.398+540.576+631.384L539.906+631.145L539.681+630.933L539.236+630.625L538.881+630.154L538.744+630.037C538.799+629.928+538.826+629.83+538.826+629.743C538.826+629.707+538.817+629.68+538.799+629.661L538.614+629.367L538.573+628.978L538.56+628.663C538.56+628.558+538.585+628.419+538.635+628.246C538.712+627.973+538.776+627.809+538.826+627.754L539.079+627.433L539.209+627.139L539.53+626.831L539.879+626.373L540.187+626.202L540.631+625.895L540.925+625.696L541.027+625.628L541.232+625.587L541.854+625.389L542.34+625.334L542.634+625.211L542.777+625.197C543.01+625.197+543.206+625.323+543.365+625.573C543.452+625.564+543.516+625.516+543.557+625.43L543.741+625.587L543.994+625.724L544.568+626.284C544.641+626.376+544.697+626.454+544.736+626.52C544.775+626.586+544.813+626.656+544.852+626.729C544.891+626.802+544.925+626.881+544.955+626.968C544.984+627.055+545.029+627.187+545.088+627.364L545.143+627.535L545.074+627.563L544.808+627.508L544.514+627.604L544.288+627.563L544.035+627.631L543.557+627.576L543.099+627.604L542.62+627.522L541.841+627.535L541.458+627.522L540.535+627.645L540.2+627.631L539.735+627.768L539.571+627.802L539.544+627.966C539.535+628.08+539.519+628.157+539.496+628.198C539.473+628.239+539.423+628.287+539.346+628.342L539.359+628.472C539.51+628.586+539.59+628.656+539.599+628.684L539.776+629.381L539.865+629.552C539.82+629.598+539.797+629.639+539.797+629.675C539.797+629.675+539.798+629.677+539.8+629.682C539.803+629.686+539.806+629.693+539.811+629.702L540.07+629.784L540.132+629.955C540.177+630.115+540.237+630.213+540.31+630.249L540.679+630.4L540.802+630.666C540.866+630.698+540.968+630.723+541.109+630.741L541.205+630.919L541.417+630.946L542.005+631.158L542.497+631.063L543.796+630.851L544.076+630.68L544.514+630.413L544.876+629.942C544.94+629.864+545.015+629.825+545.102+629.825C545.261+629.825+545.341+629.896+545.341+630.037ZM543.728+626.818C543.728+626.745+543.643+626.592+543.475+626.36L543.003+626.018L542.846+625.854L542.62+625.84L542.101+625.799L541.978+625.826L541.684+625.99L541.308+626.079L540.829+626.257L540.645+626.325L540.426+626.654C540.289+626.749+540.214+626.808+540.2+626.831L540.173+626.913L541.014+626.975L541.109+626.961L541.267+626.913L541.417+626.947L541.82+627.029L541.841+627.029L542.299+626.947L542.442+626.913L542.552+627.071L542.709+627.071L543.311+626.947L543.557+626.975C543.671+626.961+543.728+626.909+543.728+626.818Z" opacity="1" fill="#000000"/>
<path d="M492.191+648.323C492.191+648.652+492.13+648.968+492.007+649.274L491.87+649.342L491.48+649.738L491.098+649.957L490.906+649.991L490.776+650.087L490.346+650.196C490.204+650.237+490.134+650.317+490.134+650.436L490.216+650.716L490.093+650.812L490.052+650.996C490.038+651.124+490.02+651.205+489.997+651.239C489.974+651.273+489.936+651.29+489.881+651.29L489.655+651.249C489.655+651.349+489.689+651.438+489.758+651.516L489.628+651.68L489.478+651.796L489.348+651.946L488.903+652.213L488.814+652.343L488.534+652.425L487.994+652.746L487.406+652.999L486.743+653.197L486.21+653.252L485.766+653.348L485.581+653.334L485.567+653.389L485.342+653.389L485.15+653.266C485.096+653.311+485.068+653.362+485.068+653.416L484.952+653.416L484.897+653.416C484.692+653.416+484.542+653.395+484.446+653.351C484.351+653.308+484.278+653.232+484.228+653.122L484.152+653.136L484.07+653.054L484.016+653.054L483.988+653.197C483.897+653.197+483.831+653.189+483.79+653.174C483.749+653.158+483.678+653.113+483.578+653.04C483.382+652.885+483.232+652.745+483.127+652.62C483.022+652.494+482.931+652.345+482.854+652.172C482.908+652.063+482.936+651.992+482.936+651.96L482.922+651.878L482.826+651.782L482.56+651.639L482.519+651.475L482.532+651.359C482.601+651.359+482.648+651.348+482.676+651.328C482.703+651.307+482.735+651.263+482.771+651.195L482.669+651.078L482.573+651.092C482.491+651.092+482.45+651.019+482.45+650.873C482.45+650.75+482.478+650.632+482.532+650.518L482.744+650.073L482.881+649.779L483.004+649.636L483.147+649.404L483.284+649.315L483.523+649.034L483.763+648.925L483.988+648.576L484.241+648.337L484.282+648.18L484.699+647.988L484.829+647.859L484.938+647.749C484.77+647.681+484.66+647.615+484.61+647.551C484.56+647.487+484.531+647.385+484.521+647.243L484.241+647.298L483.79+646.799L483.831+646.614C483.831+646.546+483.781+646.485+483.681+646.43L483.831+646.095L483.776+646.068L483.776+645.958C483.776+645.867+483.789+645.795+483.814+645.743C483.839+645.69+483.888+645.63+483.961+645.562C484.038+645.557+484.091+645.545+484.118+645.524C484.146+645.504+484.182+645.452+484.228+645.37C484.273+645.275+484.369+645.169+484.515+645.052C484.66+644.936+484.793+644.864+484.911+644.837L484.952+644.68L485.232+644.653L485.403+644.488L486.23+644.167L486.593+643.942L487.064+643.928L487.728+643.798C487.924+643.812+488.053+643.91+488.117+644.092L488.315+644.154L488.397+644.461C488.466+644.529+488.507+644.593+488.521+644.653C488.521+644.73+488.457+644.801+488.329+644.864L488.199+644.796L487.714+644.68L487.529+644.612L487.358+644.68L487.153+644.571L487.126+644.653L486.955+644.694L486.702+644.625L486.312+644.741L486.299+644.694L486.101+644.653L485.978+644.694L485.581+644.837L485.417+644.933L485.287+644.974L484.713+645.452C484.667+645.471+484.617+645.498+484.562+645.534C484.54+645.557+484.487+645.721+484.405+646.027L484.351+646.177L484.521+646.348L484.672+646.457L484.699+646.601L484.911+646.737L485.096+646.867L486.046+647.093L486.23+647.161L486.381+647.148L487.167+647.175L487.516+647.045L487.892+647.031L488.186+646.963L488.466+647.045L488.24+647.592L488.035+647.681C487.857+647.731+487.745+647.77+487.697+647.797C487.649+647.824+487.607+647.879+487.57+647.961L487.331+647.886L487.208+647.777L487.064+647.708L486.859+647.79L486.661+647.722L486.565+647.79L486.183+647.749L485.807+647.947L485.513+647.913L485.342+647.975L485.458+648.139L485.191+648.18L484.802+648.419L484.521+648.563L484.002+649.178C483.956+649.223+483.868+649.26+483.735+649.287C483.722+649.378+483.651+649.556+483.523+649.821L483.414+650.21L483.414+650.463L483.359+650.593L483.428+650.743L483.482+651.133L483.612+651.359L483.681+651.543L483.831+651.694L483.961+651.905L484.433+652.384C484.474+652.425+484.524+652.471+484.583+652.521C484.642+652.571+484.697+652.608+484.747+652.633C484.797+652.659+484.852+652.678+484.911+652.692L485.328+652.787L485.82+652.828L486.046+652.815L486.073+652.883L486.23+652.856L486.606+652.856L486.818+652.76L487.01+652.705L487.728+652.425L487.946+652.384L487.994+652.254C488.272+652.09+488.472+651.957+488.592+651.854C488.713+651.752+488.835+651.596+488.958+651.386L489.081+651.181L489.122+650.86L489.17+650.607C489.161+650.511+489.058+650.383+488.862+650.224L488.37+649.848C488.247+649.72+488.158+649.638+488.104+649.602C488.049+649.565+487.955+649.531+487.823+649.499L487.488+649.328L487.263+649.287L486.9+649.383L486.661+649.445C486.588+649.463+486.527+649.522+486.477+649.622L486.312+649.93L486.155+650.087L486.23+650.408L486.23+650.422C486.23+650.445+486.205+650.481+486.155+650.531C486.096+650.582+486.028+650.607+485.95+650.607C485.909+650.607+485.875+650.593+485.848+650.566L485.766+650.477L485.581+650.367C485.517+650.317+485.485+650.237+485.485+650.128C485.485+649.991+485.522+649.893+485.595+649.834L485.902+649.568L486.312+649.219L486.771+649.048L487.434+648.768L487.714+648.713L487.98+648.727L488.507+648.884L488.89+649.089L488.917+649.233L488.999+649.417L489.136+649.472L489.197+649.342L489.136+649.233L489.307+649.315L489.73+649.581L490.038+649.725C490.229+649.725+490.519+649.597+490.906+649.342C491.043+649.26+491.116+649.196+491.125+649.151L491.228+648.576C491.228+648.453+491.12+648.262+490.906+648.002C490.943+647.938+490.976+647.894+491.005+647.869C491.035+647.844+491.079+647.822+491.139+647.804L491.364+647.722L491.494+647.845L491.549+647.927L491.856+648.057C491.907+648.098+491.957+648.187+492.007+648.323L492.191+648.323Z" opacity="1" fill="#000000"/>
<path d="M506.109+652.678C506.109+652.696+506.1+652.723+506.082+652.76L505.815+652.986L505.535+653.389L505.31+653.389L505.173+653.416L505.159+653.293L505.077+653.122L505.091+652.986L505.077+652.856C505.009+652.728+504.97+652.616+504.961+652.521L504.852+652.521L504.797+652.37L504.558+651.905L504.517+651.666L504.168+651.065C504.127+650.983+504.106+650.889+504.106+650.784C504.111+650.766+504.114+650.75+504.117+650.737C504.119+650.723+504.12+650.702+504.12+650.675C504.038+650.634+503.974+650.577+503.929+650.504C503.765+650.231+503.667+650.007+503.635+649.834L503.396+649.725C503.354+649.93+503.275+650.032+503.156+650.032L503.129+650.032L502.418+649.903L502.165+649.916L501.98+649.889L501.003+650.019L500.429+649.991L500.121+650.073L499.882+649.991L499.697+649.944C499.638+650.021+499.588+650.071+499.547+650.094C499.506+650.117+499.453+650.128+499.39+650.128L499.349+650.128L498.747+650.087L498.521+650.142L498.228+650.155C498.127+650.178+498.016+650.333+497.893+650.62L497.77+650.887L497.694+650.914C497.562+651.265+497.391+651.596+497.182+651.905L497.168+652.049L497.065+652.199L496.689+653.04C496.662+653.122+496.56+653.184+496.382+653.225L496.396+653.334C496.341+653.343+496.266+653.348+496.17+653.348C496.038+653.348+495.899+653.298+495.753+653.197L496.02+652.733L496.211+652.493L496.368+652.24L496.464+652.09L496.56+651.96L496.56+651.905C496.746+651.878+496.84+651.794+496.84+651.653L496.84+651.488L497.052+651.236L497.346+650.593L497.517+650.354L497.708+649.93L497.934+649.499L498.2+649.048L498.48+648.781C498.499+648.763+498.508+648.74+498.508+648.713C498.508+648.677+498.485+648.636+498.439+648.59C498.521+648.531+498.581+648.482+498.617+648.443C498.654+648.404+498.688+648.351+498.72+648.282L498.638+648.153L498.72+648.016L498.829+647.695C498.843+647.667+498.9+647.61+499+647.524L498.986+647.455L499.294+646.669L499.533+646.027C499.579+645.908+499.681+645.762+499.841+645.589L499.786+645.439L499.827+645.254C499.854+645.122+499.881+645.031+499.906+644.981C499.931+644.931+499.974+644.894+500.036+644.871C500.097+644.848+500.176+644.828+500.271+644.81L500.312+644.707L500.244+644.502C500.226+644.447+500.217+644.409+500.217+644.386C500.217+644.322+500.244+644.277+500.299+644.249L500.764+643.942L500.859+643.73C500.955+643.611+501.083+643.545+501.242+643.531L501.324+643.812L501.406+643.812L501.379+643.887L501.475+644.092L501.673+644.345L501.926+644.81L502.062+645.186L502.233+645.493L502.062+645.548C502.062+645.598+502.083+645.641+502.124+645.678C502.288+645.774+502.37+645.862+502.37+645.945L502.356+646.068L502.514+646.238L502.698+646.546L502.794+646.71L502.808+646.765L502.753+646.895L502.78+647.031L502.876+647.161L503.074+647.325L503.313+647.804L503.437+648.016L503.437+648.18C503.614+648.335+503.703+648.453+503.703+648.535C503.703+648.544+503.694+648.576+503.676+648.631L503.812+648.768L504.12+649.287C504.147+649.328+504.169+649.364+504.185+649.393C504.201+649.423+504.228+649.471+504.267+649.537C504.306+649.603+504.332+649.65+504.346+649.677C504.423+649.795+504.468+649.873+504.479+649.909C504.49+649.946+504.498+650.01+504.503+650.101C504.662+650.178+504.742+650.267+504.742+650.367C504.742+650.376+504.735+650.386+504.722+650.395L504.694+650.689C504.694+650.68+504.703+650.711+504.722+650.784L505.002+650.928L505.091+651.051L505.132+651.181C505.15+651.249+505.225+651.318+505.357+651.386L505.357+651.543L505.59+651.782L505.815+652.158L505.932+652.295C505.986+652.363+506.03+652.436+506.062+652.514C506.093+652.591+506.109+652.646+506.109+652.678ZM503.3+649.164L503.238+649.11L503.266+649.062L503.238+648.993L503.102+648.993C503.047+648.93+503.004+648.756+502.972+648.474L502.958+648.337L502.698+648.269L502.37+647.619L502.274+647.619L501.857+646.799L501.912+646.642L501.871+646.471L501.55+646.307L501.058+645.329C501.039+645.279+500.932+645.174+500.736+645.015L500.654+645.076L500.565+645.357L500.511+645.37C500.456+645.562+500.415+645.68+500.388+645.726C500.36+645.771+500.303+645.835+500.217+645.917C500.098+646.022+500.032+646.129+500.019+646.238L499.991+646.403L499.684+647.079C499.652+647.161+499.622+647.232+499.595+647.291C499.567+647.35+499.549+647.389+499.54+647.407C499.531+647.426+499.515+647.451+499.492+647.483C499.469+647.515+499.444+647.542+499.417+647.565L499.362+647.708C499.326+647.799+499.296+647.855+499.273+647.876C499.251+647.896+499.201+647.909+499.123+647.913L499.109+648.071C499.091+648.303+499.054+648.474+498.997+648.583C498.94+648.693+498.843+648.793+498.706+648.884L498.829+649.075C498.774+649.08+498.733+649.096+498.706+649.123C498.679+649.151+498.656+649.196+498.638+649.26L498.59+649.431L498.706+649.445L498.932+649.513L499.109+649.486L499.267+649.54L499.294+649.486L499.417+649.472L500.299+649.527L500.859+649.486L501.085+649.581C501.117+649.549+501.141+649.53+501.157+649.523C501.173+649.516+501.222+649.509+501.304+649.503C501.386+649.496+501.513+649.481+501.687+649.458L501.871+649.431L501.844+649.499L501.898+649.527C501.939+649.527+501.99+649.49+502.049+649.417L502.233+649.404C502.475+649.381+502.657+649.364+502.78+649.352C502.903+649.341+502.979+649.332+503.006+649.325C503.033+649.318+503.075+649.3+503.132+649.27C503.189+649.241+503.245+649.205+503.3+649.164Z" opacity="1" fill="#000000"/>
<path d="M513.868+652.787L513.854+652.931L513.711+652.972L513.246+653.054L512.747+653.095C512.724+652.913+512.7+652.795+512.675+652.743C512.65+652.69+512.613+652.651+512.562+652.623C512.512+652.664+512.467+652.694+512.426+652.712C512.385+652.73+512.331+652.752+512.265+652.777C512.199+652.802+512.139+652.828+512.084+652.856C511.56+653.129+510.605+653.266+509.22+653.266C508.955+653.266+508.761+653.241+508.635+653.191C508.51+653.14+508.42+653.054+508.365+652.931C508.288+652.94+508.222+652.976+508.167+653.04L507.955+652.972C507.941+652.881+507.922+652.817+507.897+652.78C507.872+652.744+507.818+652.71+507.736+652.678L507.647+652.76C507.502+652.723+507.39+652.676+507.312+652.616C507.235+652.557+507.11+652.432+506.937+652.24C506.955+652.195+506.964+652.14+506.964+652.076C506.964+651.962+506.916+651.869+506.82+651.796L506.629+651.612L506.602+651.475L506.485+650.955L506.485+650.839C506.485+650.684+506.515+650.518+506.574+650.34L506.561+650.196L506.643+650.032L507.073+649.034C507.137+648.889+507.226+648.816+507.34+648.816L507.354+648.816L507.579+648.829L507.661+648.255L507.928+648.043L508.208+647.722L508.406+647.592L508.529+647.483C508.579+647.455+508.627+647.437+508.673+647.428C508.718+647.437+508.769+647.442+508.823+647.442C508.91+647.446+508.968+647.456+508.998+647.472C509.027+647.488+509.062+647.528+509.104+647.592C509.176+647.483+509.293+647.405+509.452+647.36L509.438+647.148L509.637+647.066C509.819+647.011+509.932+646.976+509.975+646.96C510.018+646.944+510.079+646.927+510.156+646.908L510.396+646.922L510.717+646.813L510.867+646.908C510.94+646.945+510.988+646.968+511.011+646.977L511.038+647.045C511.088+647.086+511.12+647.107+511.134+647.107C511.175+647.107+511.227+647.041+511.291+646.908L511.653+646.99C511.918+647.05+512.085+647.095+512.156+647.127C512.226+647.159+512.291+647.216+512.351+647.298L512.761+647.284L512.706+647.148L512.631+647.031L512.59+646.546L512.549+646.403L512.604+646.054L512.549+645.104L512.562+645.001L512.788+644.919L512.692+644.782L512.658+644.598L512.562+644.29C512.526+644.204+512.508+644.092+512.508+643.955L512.508+643.873L512.576+642.903L512.521+642.472L512.562+642.287C512.645+642.269+512.692+642.223+512.706+642.151L512.617+642.062C512.517+642.053+512.428+642.021+512.351+641.966L512.351+641.884L512.351+641.795L512.296+641.378L512.269+640.913C512.269+640.831+512.218+640.754+512.118+640.681C512.159+640.517+512.232+640.423+512.337+640.401L512.761+640.312L513.041+640.134L513.349+640.066L513.499+640.018C513.595+640.127+513.643+640.246+513.643+640.373L513.629+640.537L513.561+640.9L513.574+641.098L513.54+641.699L513.54+642.205L513.458+642.499L513.472+643.128C513.449+643.201+513.394+643.294+513.308+643.408L513.513+643.983L513.472+644.133L513.472+644.461L513.417+644.598L513.472+645.063C513.472+645.126+513.453+645.211+513.417+645.316L513.267+645.316C513.226+645.457+513.205+645.559+513.205+645.623C513.205+645.651+513.21+645.669+513.219+645.678L513.458+646.013L513.444+646.505L513.485+647.079L513.458+647.312L513.444+647.414L513.458+647.551L513.362+647.667L513.403+648.31L513.39+648.768L513.444+649.205L513.444+649.499L513.485+649.834L513.485+650.367L513.588+650.901L513.602+651.331L513.684+651.639L513.697+651.919L513.697+652.131C513.747+652.172+513.788+652.263+513.82+652.404C513.852+652.546+513.868+652.673+513.868+652.787ZM512.761+649.971L512.692+649.54C512.578+649.499+512.521+649.442+512.521+649.369L512.521+649.342L512.576+649.048L512.535+648.515L512.535+648.378L512.467+648.221L512.48+648.057C512.48+647.993+512.453+647.961+512.398+647.961C512.371+647.961+512.355+647.95+512.351+647.927L512.07+647.988L512.002+648.002L511.906+647.988L510.635+647.681L510.17+647.667L510.026+647.667C509.981+647.667+509.953+647.672+509.944+647.681L509.705+647.777L509.397+647.777L508.994+648.043L508.714+648.084L508.516+648.221L508.235+648.474C508.131+648.583+508.067+648.681+508.044+648.768L508.017+648.939L507.75+649.219L507.47+649.636C507.392+649.795+507.354+649.923+507.354+650.019C507.354+650.119+507.372+650.208+507.408+650.285L507.456+650.408L507.606+650.969L507.764+651.249L507.777+651.4L507.777+651.488L507.941+651.557C508.064+651.721+508.201+651.872+508.352+652.011C508.502+652.15+508.65+652.256+508.796+652.329L509.104+652.466L509.206+652.521L509.411+652.548L509.582+652.548L509.972+652.692L510.074+652.692L510.409+652.692L511.093+652.664C511.22+652.66+511.391+652.624+511.605+652.558C511.82+652.492+511.979+652.434+512.084+652.384L512.398+652.117L512.549+651.933L512.48+651.755L512.521+651.571L512.535+651.372L512.521+651.092L512.494+650.784L512.508+650.743L512.521+650.518L512.467+650.21C512.462+650.201+512.459+650.194+512.457+650.19C512.454+650.185+512.453+650.183+512.453+650.183C512.453+650.078+512.556+650.007+512.761+649.971Z" opacity="1" fill="#000000"/>
<path d="M522.598+649.568L522.447+649.54L522.475+649.697L522.317+649.807C522.34+649.889+522.36+649.939+522.375+649.957C522.391+649.975+522.434+650.005+522.502+650.046L522.516+650.183C522.516+650.68+522.324+651.217+521.941+651.796C521.855+651.924+521.748+652.058+521.62+652.199C521.493+652.341+521.413+652.434+521.381+652.48L521.176+652.534L519.884+653.136L519.173+653.163L518.653+653.293L518.038+653.279L517.826+653.334L517.211+653.225L516.958+653.211L516.821+653.054L516.438+652.999L516.261+652.904C516.106+652.785+515.976+652.686+515.871+652.606C515.766+652.526+515.699+652.474+515.669+652.449C515.64+652.424+515.616+652.398+515.598+652.37L515.447+652.076L515.235+651.905L515.071+651.475L515.01+651.304L515.085+651.249C515.085+651.185+515.094+651.142+515.112+651.119C515.131+651.097+515.172+651.074+515.235+651.051L515.194+650.942L514.969+650.798L514.969+650.518C514.969+650.322+514.992+650.128+515.037+649.937C515.083+649.745+515.162+649.524+515.276+649.274C515.454+648.873+515.586+648.645+515.673+648.59L515.953+648.405L516.104+648.139C516.158+648.043+516.224+647.979+516.302+647.947L516.944+647.606L517.307+647.312L517.744+647.148L518.51+646.881L519.146+646.826L519.645+646.813C519.927+646.813+520.068+646.89+520.068+647.045C520.146+647.113+520.196+647.148+520.219+647.148C520.287+647.148+520.362+647.082+520.444+646.949L520.615+646.99L521.06+647.148L521.244+647.298L521.497+647.455L521.75+647.845C521.818+647.932+521.953+647.975+522.153+647.975C522.285+648.139+522.374+648.301+522.42+648.46C522.465+648.62+522.516+648.914+522.57+649.342L522.598+649.568ZM521.606+649.738L521.354+648.952L521.312+648.604L521.244+648.474L521.203+648.474C521.167+648.474+521.137+648.467+521.114+648.453C521.091+648.44+521.064+648.415+521.032+648.378L520.697+647.961L520.588+647.79L520.014+647.524C519.959+647.432+519.912+647.365+519.874+647.322C519.835+647.279+519.788+647.257+519.733+647.257C519.674+647.257+519.581+647.28+519.453+647.325C519.326+647.271+519.232+647.243+519.173+647.243L518.975+647.271L518.64+647.284L518.175+647.455L518.065+647.36L517.983+647.469L517.519+647.749L516.664+648.487L516.5+648.631C516.464+648.863+516.359+649.13+516.186+649.431L516.09+649.595L516.09+649.65C516.09+649.75+516.074+649.816+516.042+649.848C516.01+649.88+515.946+649.903+515.851+649.916C515.832+649.989+515.823+650.023+515.823+650.019C515.828+650.028+515.831+650.036+515.833+650.043C515.836+650.05+515.837+650.055+515.837+650.06L516.049+650.299L516.076+650.449C515.935+650.568+515.864+650.648+515.864+650.689C515.864+650.689+515.873+650.716+515.892+650.771C515.933+650.725+515.971+650.702+516.008+650.702C516.049+650.702+516.076+650.716+516.09+650.743L516.247+651.249L516.596+651.823L516.555+652.172C516.591+652.209+516.632+652.227+516.678+652.227C516.732+652.227+516.789+652.199+516.849+652.145L516.985+652.186L517.812+652.692L518.653+652.774L519.132+652.842L519.672+652.746L520.027+652.664L520.472+652.213L520.793+652.117L520.95+651.946L521.312+651.195L521.497+651.037C521.561+650.973+521.593+650.919+521.593+650.873L521.593+650.839L521.483+650.518L521.606+649.738Z" opacity="1" fill="#000000"/>
<path d="M529.912+652.575L529.844+652.774L528.9+653.225C528.773+653.061+528.709+652.958+528.709+652.917L528.709+652.883L528.873+652.227L528.887+651.933L528.941+651.946L529.058+651.81C529.026+651.737+528.995+651.689+528.965+651.666C528.936+651.643+528.882+651.616+528.805+651.584L528.777+651.475L528.887+650.196L528.818+650.019L528.832+649.793L528.832+649.274L528.914+649.021L528.791+648.898L528.805+648.487C528.755+648.337+528.67+648.194+528.552+648.057L528.552+647.988C528.552+647.929+528.534+647.886+528.497+647.859L528.326+647.845L527.978+647.633L527.417+647.667L526.774+647.619C526.72+647.647+526.658+647.704+526.59+647.79L526.467+647.763L525.934+647.859L525.742+647.9L525.503+648.084L525.195+648.221C525.045+648.294+524.961+648.403+524.942+648.549L524.929+649.219L524.84+649.636L524.983+650.046L524.983+650.265L524.97+651.078L524.84+651.359L524.826+651.461L524.826+651.502L524.956+651.721L524.997+652.466L525.052+652.705C525.052+652.733+525.038+652.768+525.011+652.811C524.983+652.855+524.947+652.885+524.901+652.904L524.45+653.013L524.327+653.04C524.254+653.163+524.184+653.225+524.115+653.225C524.07+653.225+524.022+653.2+523.972+653.15C523.967+653.14+523.961+653.131+523.955+653.122C523.948+653.113+523.94+653.104+523.931+653.095C523.912+653.058+523.903+653.045+523.903+653.054L524.006+652.548L523.992+651.974L524.061+651.741L524.006+651.359L524.033+650.942L524.047+650.06C524.047+649.941+524.127+649.875+524.286+649.862C524.272+649.761+524.249+649.699+524.214+649.674C524.18+649.648+524.106+649.636+523.992+649.636L524.006+648.405L524.156+648.31L524.074+648.166L523.89+647.667L523.767+647.51L523.849+647.36L523.992+647.189L524.238+647.079L524.478+646.895C524.546+646.84+524.63+646.813+524.73+646.813C524.79+646.813+524.847+646.83+524.901+646.864C524.956+646.898+524.988+646.936+524.997+646.977L525.011+647.619L525.038+647.831L525.168+647.79C525.332+647.59+525.525+647.402+525.746+647.226C525.967+647.051+526.132+646.963+526.241+646.963C526.3+646.963+526.348+647.011+526.385+647.107C526.476+647.079+526.583+647.027+526.706+646.949C526.838+646.876+526.95+646.84+527.041+646.84L527.082+646.84L527.643+646.895L527.854+646.826L528.483+646.908C528.698+646.936+528.866+647.011+528.989+647.134L529.085+647.12C529.231+647.12+529.352+647.184+529.447+647.312L529.55+647.483L529.687+647.708C529.75+647.786+529.782+647.952+529.782+648.207L529.782+648.59L529.81+648.754L529.646+648.966L529.7+649.137L529.782+649.287L529.782+649.445L529.782+649.568C529.782+649.604+529.778+649.631+529.769+649.65L529.673+649.848C529.655+649.884+529.646+649.95+529.646+650.046L529.782+650.224L529.769+650.422L529.755+650.901L529.755+650.955L529.857+651.222L529.871+651.837L529.912+652.575Z" opacity="1" fill="#000000"/>
<path d="M533.2+643.408C533.2+643.509+533.175+643.575+533.125+643.607L532.626+643.969L532.428+644.167L532.065+644.413C531.824+644.591+531.678+644.68+531.628+644.68C531.605+644.68+531.581+644.665+531.556+644.635C531.531+644.606+531.519+644.575+531.519+644.543C531.519+644.438+531.546+644.359+531.601+644.304L532.305+643.634L532.681+643.128C532.735+643.101+532.797+643.087+532.865+643.087C532.956+643.087+533.035+643.118+533.101+643.179C533.167+643.241+533.2+643.317+533.2+643.408ZM532.79+647.031C532.703+647.223+532.653+647.401+532.64+647.565L532.599+648.241L532.469+648.474C532.469+648.483+532.468+648.492+532.465+648.501C532.463+648.51+532.46+648.522+532.455+648.535C532.455+648.595+532.512+648.658+532.626+648.727L532.599+648.939L532.599+650.265L532.571+651.331L532.667+651.782L532.667+652.015L532.694+652.48C532.672+652.548+532.528+652.682+532.264+652.883L531.922+653.15C531.867+653.209+531.799+653.238+531.717+653.238C531.658+653.238+531.605+653.22+531.56+653.184C531.514+653.147+531.491+653.109+531.491+653.068C531.491+652.949+531.528+652.81+531.601+652.651L531.655+652.452L531.587+652.384L531.689+651.236L531.73+651.119L531.908+651.092L531.908+650.873C531.908+650.732+531.897+650.627+531.874+650.559C531.851+650.49+531.794+650.399+531.703+650.285L531.717+650.06L531.717+650.019L531.703+649.903C531.703+649.752+531.73+649.618+531.785+649.499L531.689+649.383L531.703+649.007C531.767+648.971+531.799+648.93+531.799+648.884L531.785+648.768L531.587+648.74L531.587+648.535L531.601+648.351L531.601+648.071C531.601+647.947+531.588+647.856+531.563+647.797C531.538+647.738+531.482+647.674+531.396+647.606C531.455+647.446+531.589+647.307+531.799+647.189L532.455+646.813C532.578+646.826+532.69+646.899+532.79+647.031Z" opacity="1" fill="#000000"/>
<path d="M539.749+651.037C539.749+651.22+539.716+651.372+539.65+651.495C539.584+651.618+539.505+651.68+539.414+651.68C539.396+651.68+539.35+651.671+539.277+651.653L539.188+651.81L539.065+652.145L538.758+652.48L538.614+652.678L538.423+652.692L537.787+653.013L537.493+653.054L536.994+653.225L536.598+653.15L535.996+653.293C535.955+653.293+535.732+653.25+535.326+653.163C535.135+653.122+535.014+653.081+534.964+653.04L534.697+652.869L534.362+652.678C534.221+652.587+534.106+652.469+534.017+652.326C533.928+652.182+533.884+652.051+533.884+651.933C533.884+651.86+533.961+651.761+534.116+651.635C534.271+651.51+534.442+651.404+534.629+651.318L534.779+651.516L534.909+652.117L535.155+652.268L535.552+652.575L535.743+652.637L536.112+652.815L536.365+652.815L536.529+652.842L536.864+652.746L537.425+652.692L537.705+652.548L537.972+652.452C538.14+652.352+538.304+652.146+538.464+651.834C538.623+651.522+538.703+651.238+538.703+650.983C538.703+650.887+538.674+650.803+538.614+650.73L538.348+650.354L538.279+650.183L538.115+650.101L538.026+650.21L537.876+650.196L537.507+650.142L537.076+650.142L536.967+650.142L536.782+649.875C536.687+649.985+536.609+650.054+536.55+650.084C536.491+650.113+536.377+650.142+536.208+650.169L535.969+650.21L535.832+650.142L535.661+650.142L535.483+650.005L535.258+650.046L535.046+649.944L534.752+649.848C534.638+649.811+534.54+649.723+534.458+649.581C534.376+649.44+534.335+649.296+534.335+649.151C534.335+648.927+534.412+648.69+534.567+648.44C534.722+648.189+534.939+647.959+535.217+647.749C535.431+647.585+535.686+647.423+535.982+647.264C536.279+647.104+536.558+646.981+536.82+646.895C537.082+646.808+537.297+646.765+537.466+646.765C537.516+646.765+537.689+646.813+537.985+646.908L538.184+646.977C538.493+646.922+538.694+646.895+538.785+646.895C538.913+646.895+539.014+646.915+539.089+646.956C539.165+646.997+539.202+647.047+539.202+647.107C539.202+647.166+539.137+647.249+539.007+647.356C538.877+647.463+538.715+647.562+538.519+647.654L538.307+647.749L538.129+647.736L537.787+647.722L537.527+647.654L537.411+647.414L537.315+647.414L537.199+647.537L536.994+647.537L536.796+647.537L536.516+647.578L536.304+647.524L536.194+647.606L535.757+647.859C535.451+648.123+535.299+648.362+535.299+648.576C535.299+648.727+535.344+648.825+535.436+648.87L535.887+649.075L536.023+649.151L536.023+649.315L536.235+649.431L536.461+649.219L536.57+649.233L537.719+649.151L538.266+649.274L538.519+649.233L538.84+649.445L539.318+649.711C539.414+649.775+539.498+649.918+539.571+650.142L539.626+650.326C539.708+650.613+539.749+650.85+539.749+651.037Z" opacity="1" fill="#000000"/>
</g>
<g opacity="1">
<path d="M602.312+569.642L602.312+567.25L600.713+567.25L600.713+574.051L602.251+574.051L602.251+575.801L596.474+575.801L596.474+574.051L598.04+574.051L598.04+567.25L596.474+567.25L596.474+569.642L594.724+569.642L594.724+565.5L604.049+565.5L604.049+569.642L602.312+569.642Z" opacity="1" fill="#ffffff"/>
<path d="M602.394+589.494L597.035+589.494C597.09+590.045+597.28+590.482+597.606+590.803C597.932+591.124+598.352+591.285+598.867+591.285C599.437+591.285+599.993+591.002+600.535+590.437L602.312+591.011C601.92+591.599+601.435+592.04+600.856+592.334C600.278+592.628+599.592+592.775+598.799+592.775C598.006+592.775+597.305+592.626+596.697+592.327C596.088+592.029+595.617+591.606+595.282+591.059C594.947+590.512+594.779+589.87+594.779+589.131C594.779+588.402+594.953+587.741+595.302+587.149C595.651+586.557+596.122+586.093+596.717+585.758C597.312+585.423+597.958+585.255+598.655+585.255C599.412+585.255+600.07+585.43+600.631+585.778C601.191+586.127+601.623+586.621+601.926+587.262C602.229+587.902+602.385+588.646+602.394+589.494ZM598.546+586.78C598.136+586.78+597.806+586.898+597.558+587.135C597.31+587.372+597.154+587.735+597.09+588.222L600.084+588.222C600.02+587.794+599.846+587.446+599.561+587.18C599.276+586.913+598.938+586.78+598.546+586.78Z" opacity="1" fill="#ffffff"/>
<path d="M608.294+585.419L610.468+585.419L610.468+587.101L609.504+587.101L608.061+588.81L609.736+590.95L610.721+590.95L610.721+592.604L607.959+592.604L606.578+590.587L605.074+592.604L602.839+592.604L602.839+590.95L603.885+590.95L605.443+589.104L603.885+587.101L602.839+587.101L602.839+585.419L605.607+585.419L606.899+587.395L608.294+585.419Z" opacity="1" fill="#ffffff"/>
<path d="M599.229+602.222L599.229+603.904L597.903+603.904L597.903+607.042C597.903+607.265+597.946+607.432+598.033+607.544C598.12+607.656+598.281+607.711+598.518+607.711C598.714+607.711+598.951+607.661+599.229+607.561L599.229+609.154C598.614+609.395+598.035+609.516+597.493+609.516C596.869+609.516+596.4+609.358+596.088+609.041C595.776+608.724+595.62+608.277+595.62+607.698L595.62+603.904L594.711+603.904L594.711+602.222L595.62+602.222L595.62+601.108L597.903+599.467L597.903+602.222L599.229+602.222Z" opacity="1" fill="#ffffff"/>
<path d="M607.672+606.296L602.312+606.296C602.367+606.848+602.557+607.284+602.883+607.606C603.209+607.927+603.629+608.087+604.144+608.087C604.714+608.087+605.27+607.805+605.812+607.24L607.59+607.814C607.198+608.402+606.712+608.843+606.134+609.137C605.555+609.431+604.869+609.578+604.076+609.578C603.283+609.578+602.582+609.428+601.974+609.13C601.366+608.831+600.894+608.409+600.559+607.862C600.224+607.315+600.057+606.672+600.057+605.934C600.057+605.205+600.231+604.544+600.579+603.952C600.928+603.359+601.4+602.896+601.995+602.561C602.589+602.226+603.235+602.058+603.932+602.058C604.689+602.058+605.348+602.232+605.908+602.581C606.469+602.93+606.9+603.424+607.203+604.065C607.507+604.705+607.663+605.449+607.672+606.296ZM603.823+603.583C603.413+603.583+603.084+603.701+602.835+603.938C602.587+604.175+602.431+604.537+602.367+605.025L605.361+605.025C605.297+604.597+605.123+604.249+604.838+603.982C604.553+603.716+604.215+603.583+603.823+603.583Z" opacity="1" fill="#ffffff"/>
</g>
<g opacity="1">
<path d="M-74.8625+529.756L-74.8625+527.363L-76.4621+527.363L-76.4621+534.165L-74.924+534.165L-74.924+535.915L-80.7004+535.915L-80.7004+534.165L-79.1349+534.165L-79.1349+527.363L-80.7004+527.363L-80.7004+529.756L-82.4504+529.756L-82.4504+525.613L-73.1261+525.613L-73.1261+529.756L-74.8625+529.756Z" opacity="1" fill="#ffffff"/>
<path d="M-74.7804+549.607L-80.1398+549.607C-80.0851+550.159-79.8949+550.595-79.569+550.916C-79.2432+551.238-78.8228+551.398-78.3078+551.398C-77.7381+551.398-77.1821+551.116-76.6398+550.551L-74.8625+551.125C-75.2544+551.713-75.7397+552.154-76.3185+552.448C-76.8973+552.741-77.5832+552.888-78.3761+552.888C-79.1691+552.888-79.8698+552.739-80.4782+552.441C-81.0866+552.142-81.5583+551.719-81.8932+551.173C-82.2282+550.626-82.3957+549.983-82.3957+549.245C-82.3957+548.516-82.2214+547.855-81.8727+547.262C-81.5241+546.67-81.0524+546.206-80.4577+545.871C-79.863+545.536-79.217+545.369-78.5197+545.369C-77.7632+545.369-77.1047+545.543-76.5441+545.892C-75.9836+546.24-75.5518+546.735-75.2487+547.375C-74.9456+548.016-74.7895+548.76-74.7804+549.607ZM-78.6291+546.893C-79.0392+546.893-79.3685+547.012-79.6169+547.249C-79.8652+547.486-80.0213+547.848-80.0851+548.336L-77.091+548.336C-77.1548+547.907-77.3291+547.56-77.6139+547.293C-77.8988+547.027-78.2371+546.893-78.6291+546.893Z" opacity="1" fill="#ffffff"/>
<path d="M-68.881+545.533L-66.7072+545.533L-66.7072+547.215L-67.6711+547.215L-69.1134+548.924L-67.4386+551.063L-66.4543+551.063L-66.4543+552.718L-69.216+552.718L-70.5968+550.701L-72.1007+552.718L-74.3361+552.718L-74.3361+551.063L-73.2902+551.063L-71.7316+549.218L-73.2902+547.215L-74.3361+547.215L-74.3361+545.533L-71.5675+545.533L-70.2756+547.509L-68.881+545.533Z" opacity="1" fill="#ffffff"/>
<path d="M-77.9455+562.336L-77.9455+564.017L-79.2716+564.017L-79.2716+567.155C-79.2716+567.378-79.2284+567.546-79.1418+567.657C-79.0552+567.769-78.8934+567.825-78.6564+567.825C-78.4604+567.825-78.2235+567.775-77.9455+567.675L-77.9455+569.267C-78.5607+569.509-79.1395+569.63-79.6818+569.63C-80.3061+569.63-80.7744+569.471-81.0866+569.155C-81.3988+568.838-81.5548+568.39-81.5548+567.811L-81.5548+564.017L-82.464+564.017L-82.464+562.336L-81.5548+562.336L-81.5548+561.221L-79.2716+559.581L-79.2716+562.336L-77.9455+562.336Z" opacity="1" fill="#ffffff"/>
<path d="M-69.5031+566.41L-74.8625+566.41C-74.8078+566.961-74.6175+567.398-74.2917+567.719C-73.9658+568.04-73.5454+568.201-73.0304+568.201C-72.4608+568.201-71.9048+567.918-71.3625+567.353L-69.5851+567.927C-69.977+568.515-70.4624+568.956-71.0412+569.25C-71.62+569.544-72.3058+569.691-73.0988+569.691C-73.8918+569.691-74.5924+569.542-75.2008+569.243C-75.8092+568.945-76.2809+568.522-76.6159+567.975C-76.9508+567.428-77.1183+566.786-77.1183+566.048C-77.1183+565.318-76.944+564.658-76.5954+564.065C-76.2467+563.473-75.7751+563.009-75.1803+562.674C-74.5856+562.339-73.9396+562.172-73.2423+562.172C-72.4858+562.172-71.8273+562.346-71.2668+562.695C-70.7062+563.043-70.2744+563.538-69.9714+564.178C-69.6683+564.818-69.5122+565.562-69.5031+566.41ZM-73.3517+563.696C-73.7619+563.696-74.0911+563.815-74.3395+564.052C-74.5879+564.288-74.744+564.651-74.8078+565.138L-71.8136+565.138C-71.8774+564.71-72.0518+564.363-72.3366+564.096C-72.6214+563.829-72.9598+563.696-73.3517+563.696Z" opacity="1" fill="#ffffff"/>
</g>
<g opacity="1">
<path d="M609.035+487.852L609.035+485.46L607.435+485.46L607.435+492.262L608.973+492.262L608.973+494.012L603.197+494.012L603.197+492.262L604.762+492.262L604.762+485.46L603.197+485.46L603.197+487.852L601.447+487.852L601.447+483.71L610.771+483.71L610.771+487.852L609.035+487.852Z" opacity="1" fill="#ffffff"/>
<path d="M609.117+507.704L603.758+507.704C603.812+508.255+604.002+508.692+604.328+509.013C604.654+509.334+605.075+509.495+605.59+509.495C606.159+509.495+606.715+509.212+607.258+508.647L609.035+509.221C608.643+509.809+608.158+510.25+607.579+510.544C607+510.838+606.314+510.985+605.521+510.985C604.728+510.985+604.028+510.836+603.419+510.537C602.811+510.239+602.339+509.816+602.004+509.269C601.669+508.722+601.502+508.08+601.502+507.342C601.502+506.612+601.676+505.952+602.025+505.359C602.373+504.767+602.845+504.303+603.44+503.968C604.034+503.633+604.68+503.466+605.378+503.466C606.134+503.466+606.793+503.64+607.353+503.989C607.914+504.337+608.346+504.832+608.649+505.472C608.952+506.112+609.108+506.856+609.117+507.704ZM605.268+504.99C604.858+504.99+604.529+505.109+604.28+505.345C604.032+505.582+603.876+505.945+603.812+506.432L606.806+506.432C606.743+506.004+606.568+505.657+606.283+505.39C605.999+505.123+605.66+504.99+605.268+504.99Z" opacity="1" fill="#ffffff"/>
<path d="M615.016+503.63L617.19+503.63L617.19+505.311L616.226+505.311L614.784+507.02L616.459+509.16L617.443+509.16L617.443+510.814L614.681+510.814L613.3+508.798L611.797+510.814L609.561+510.814L609.561+509.16L610.607+509.16L612.166+507.314L610.607+505.311L609.561+505.311L609.561+503.63L612.33+503.63L613.622+505.605L615.016+503.63Z" opacity="1" fill="#ffffff"/>
<path d="M605.952+520.432L605.952+522.114L604.626+522.114L604.626+525.252C604.626+525.475+604.669+525.643+604.756+525.754C604.842+525.866+605.004+525.922+605.241+525.922C605.437+525.922+605.674+525.872+605.952+525.771L605.952+527.364C605.337+527.606+604.758+527.726+604.216+527.726C603.591+527.726+603.123+527.568+602.811+527.251C602.499+526.935+602.342+526.487+602.342+525.908L602.342+522.114L601.433+522.114L601.433+520.432L602.342+520.432L602.342+519.318L604.626+517.678L604.626+520.432L605.952+520.432Z" opacity="1" fill="#ffffff"/>
<path d="M614.394+524.507L609.035+524.507C609.09+525.058+609.28+525.494+609.606+525.816C609.931+526.137+610.352+526.298+610.867+526.298C611.437+526.298+611.993+526.015+612.535+525.45L614.312+526.024C613.92+526.612+613.435+527.053+612.856+527.347C612.277+527.641+611.591+527.788+610.799+527.788C610.006+527.788+609.305+527.639+608.696+527.34C608.088+527.042+607.616+526.619+607.281+526.072C606.946+525.525+606.779+524.883+606.779+524.144C606.779+523.415+606.953+522.754+607.302+522.162C607.651+521.569+608.122+521.106+608.717+520.771C609.312+520.436+609.958+520.268+610.655+520.268C611.411+520.268+612.07+520.443+612.631+520.791C613.191+521.14+613.623+521.634+613.926+522.275C614.229+522.915+614.385+523.659+614.394+524.507ZM610.546+521.793C610.135+521.793+609.806+521.911+609.558+522.148C609.309+522.385+609.153+522.748+609.09+523.235L612.084+523.235C612.02+522.807+611.846+522.459+611.561+522.193C611.276+521.926+610.938+521.793+610.546+521.793Z" opacity="1" fill="#ffffff"/>
</g>
</g>
</svg>
